<?xml version="1.0" encoding="utf-8"?>
<!-- Generated by IcoMoon.io -->
<!DOCTYPE svg PUBLIC "-//W3C//DTD SVG 1.1//EN" "http://www.w3.org/Graphics/SVG/1.1/DTD/svg11.dtd">
<svg version="1.1" xmlns="http://www.w3.org/2000/svg" xmlns:xlink="http://www.w3.org/1999/xlink" width="45" height="32" viewBox="0 0 45 32">
<g>
	<line stroke-width="1" x1="" y1="" x2="" y2="" stroke="#449FDB" opacity=""></line>
</g>
	<path d="M41.662 50.406c-0.024 0.004-0.053 0.008-0.085 0.012s-0.076 0.005-0.128 0.005c-0.021 0-0.045-0-0.071-0.002-0.027-0-0.055-0.006-0.083-0.014s-0.057-0.021-0.084-0.039c-0.028-0.018-0.052-0.042-0.074-0.075s-0.039-0.073-0.053-0.121c-0.013-0.049-0.020-0.109-0.020-0.18 0-0.075 0.008-0.137 0.023-0.189s0.036-0.093 0.061-0.127c0.025-0.033 0.053-0.059 0.085-0.077s0.064-0.032 0.096-0.040c0.033-0.008 0.064-0.013 0.095-0.015s0.058-0.002 0.080-0.002c0.027 0 0.053 0 0.079 0.002 0.026 0 0.046 0.003 0.061 0.006v0.061h-0.116c-0.044 0-0.089 0.003-0.134 0.011s-0.086 0.023-0.122 0.049c-0.037 0.025-0.066 0.064-0.089 0.114s-0.034 0.12-0.034 0.208c0 0.059 0.005 0.108 0.015 0.149s0.025 0.074 0.042 0.1c0.018 0.026 0.038 0.047 0.062 0.062s0.048 0.026 0.074 0.033c0.026 0.007 0.053 0.011 0.080 0.013s0.053 0.002 0.077 0.002h0.164v0.057z" fill="#000000"></path>
	<path d="M42.050 50.367c0.022 0 0.045-0.003 0.069-0.010s0.045-0.021 0.064-0.042c0.019-0.021 0.035-0.050 0.048-0.089s0.019-0.088 0.019-0.15c0-0.062-0.006-0.112-0.019-0.15s-0.028-0.068-0.048-0.089c-0.019-0.021-0.041-0.035-0.064-0.042s-0.047-0.011-0.069-0.011c-0.023 0-0.046 0.004-0.070 0.011s-0.046 0.021-0.065 0.042c-0.019 0.021-0.035 0.050-0.048 0.089s-0.019 0.088-0.019 0.15c0 0.062 0.006 0.112 0.019 0.15s0.028 0.068 0.048 0.089c0.019 0.021 0.041 0.035 0.065 0.042s0.047 0.010 0.070 0.010zM42.047 50.429c-0.015 0-0.032-0-0.052-0.003s-0.040-0.007-0.061-0.015c-0.021-0.008-0.041-0.019-0.062-0.034s-0.038-0.035-0.054-0.061c-0.016-0.026-0.028-0.058-0.038-0.096s-0.014-0.084-0.014-0.139c0-0.054 0.005-0.101 0.015-0.139s0.023-0.071 0.040-0.098c0.016-0.027 0.035-0.048 0.055-0.064s0.041-0.028 0.062-0.037c0.021-0.009 0.042-0.014 0.062-0.017s0.037-0.004 0.053-0.004c0.015 0 0.032 0 0.052 0.003s0.040 0.007 0.061 0.015c0.021 0.008 0.041 0.019 0.061 0.034s0.038 0.035 0.054 0.061c0.016 0.026 0.029 0.058 0.039 0.096s0.014 0.084 0.014 0.139c0 0.054-0.005 0.101-0.015 0.139s-0.023 0.071-0.039 0.098c-0.016 0.027-0.035 0.048-0.056 0.064s-0.042 0.028-0.063 0.037c-0.021 0.009-0.042 0.014-0.061 0.017s-0.037 0.004-0.052 0.004z" fill="#000000"></path>
	<path d="M42.63 50.359c0.026 0 0.054-0.002 0.084-0.007s0.059-0.017 0.086-0.036c0.027-0.019 0.049-0.047 0.067-0.085s0.027-0.090 0.027-0.156c0-0.058-0.006-0.106-0.019-0.142s-0.029-0.064-0.048-0.084c-0.020-0.020-0.041-0.034-0.065-0.041s-0.046-0.011-0.068-0.011c-0.041 0-0.071 0.002-0.091 0.007s-0.036 0.009-0.047 0.014v0.54h0.075zM42.555 50.685h-0.080v-0.948h0.071l0.004 0.035c0.018-0.010 0.041-0.019 0.067-0.028s0.060-0.013 0.099-0.013c0.022 0 0.049 0.003 0.079 0.010s0.059 0.021 0.086 0.044c0.027 0.023 0.050 0.056 0.069 0.101s0.028 0.104 0.028 0.179c0 0.054-0.006 0.101-0.018 0.139s-0.027 0.071-0.046 0.098c-0.019 0.027-0.040 0.048-0.064 0.064s-0.048 0.028-0.072 0.036c-0.024 0.008-0.047 0.014-0.069 0.016s-0.041 0.004-0.057 0.004c-0.020 0-0.038-0-0.056-0.002-0.017-0-0.031-0.003-0.043-0.005v0.27z" fill="#000000"></path>
	<path d="M43.318 50.685h-0.082l0.095-0.269h-0.033l-0.255-0.679h0.091l0.214 0.609h0.006l0.207-0.609h0.082l-0.326 0.948z" fill="#000000"></path>
	<path d="M43.824 50.416h-0.080v-0.679h0.071l0.005 0.060c0.018-0.017 0.042-0.033 0.072-0.050s0.069-0.025 0.118-0.025c0.026 0 0.049 0 0.069 0.003v0.070h-0.084c-0.024 0-0.045 0.002-0.062 0.005s-0.033 0.007-0.046 0.011c-0.013 0.004-0.024 0.010-0.034 0.016s-0.020 0.013-0.029 0.019v0.569z" fill="#000000"></path>
	<path d="M44.246 50.416h-0.082v-0.679h0.082v0.679zM44.255 49.573h-0.099v-0.090h0.099v0.090z" fill="#000000"></path>
	<path d="M44.647 50.122c0.019 0 0.038-0.002 0.058-0.006s0.037-0.012 0.053-0.024c0.015-0.012 0.028-0.029 0.038-0.051s0.015-0.050 0.015-0.086c0-0.035-0.005-0.064-0.015-0.086s-0.023-0.040-0.038-0.053c-0.015-0.013-0.033-0.022-0.053-0.026s-0.039-0.007-0.058-0.007c-0.019 0-0.038 0.002-0.058 0.007s-0.037 0.013-0.053 0.026c-0.015 0.013-0.028 0.030-0.038 0.053s-0.015 0.051-0.015 0.086c0 0.036 0.005 0.065 0.015 0.086s0.023 0.038 0.038 0.051c0.015 0.012 0.033 0.020 0.053 0.024s0.039 0.006 0.058 0.006zM44.524 50.388c-0.007 0.005-0.015 0.011-0.023 0.018s-0.015 0.015-0.021 0.024c-0.007 0.009-0.012 0.020-0.016 0.033s-0.006 0.028-0.006 0.045c0 0.025 0.005 0.047 0.016 0.064s0.024 0.031 0.042 0.041c0.018 0.010 0.038 0.017 0.061 0.022s0.048 0.007 0.074 0.007c0.024 0 0.049-0.002 0.075-0.006s0.050-0.012 0.071-0.022c0.022-0.011 0.040-0.026 0.053-0.045s0.021-0.043 0.021-0.073c0-0.026-0.005-0.047-0.014-0.061s-0.022-0.024-0.039-0.031c-0.016-0.007-0.035-0.010-0.056-0.012s-0.042-0.002-0.064-0.002h-0.174zM44.701 50.316c0.025 0 0.052 0 0.081 0.002s0.056 0.008 0.080 0.018c0.025 0.010 0.045 0.027 0.061 0.049s0.024 0.054 0.024 0.095c0 0.047-0.009 0.084-0.028 0.113s-0.043 0.050-0.073 0.066c-0.029 0.016-0.063 0.027-0.1 0.032s-0.074 0.008-0.11 0.008c-0.033 0-0.066-0.002-0.097-0.007s-0.059-0.014-0.083-0.028c-0.024-0.014-0.044-0.033-0.058-0.058s-0.022-0.057-0.022-0.096c0-0.022 0.004-0.042 0.011-0.060s0.017-0.035 0.029-0.050c0.012-0.015 0.025-0.028 0.040-0.040s0.030-0.020 0.045-0.028c-0.012-0.009-0.021-0.020-0.028-0.035s-0.011-0.032-0.011-0.051c0-0.018 0.006-0.035 0.017-0.051s0.025-0.027 0.040-0.034c-0.015-0.007-0.029-0.016-0.042-0.028s-0.025-0.026-0.036-0.043c-0.011-0.017-0.019-0.036-0.025-0.058s-0.009-0.047-0.009-0.076c0-0.053 0.010-0.094 0.029-0.125s0.042-0.054 0.068-0.069c0.026-0.015 0.053-0.025 0.080-0.030s0.049-0.007 0.064-0.007c0.016 0 0.036 0.002 0.061 0.005s0.050 0.012 0.076 0.026c0.013-0.003 0.029-0.007 0.048-0.012s0.037-0.009 0.057-0.013c0.020-0.004 0.038-0.008 0.057-0.011s0.034-0.006 0.046-0.008v0.080h-0.157c0.017 0.018 0.030 0.039 0.040 0.064s0.015 0.058 0.015 0.096c0 0.038-0.005 0.069-0.015 0.095s-0.023 0.047-0.039 0.063c-0.016 0.017-0.034 0.030-0.054 0.038s-0.040 0.015-0.060 0.019c-0.020 0.004-0.039 0.006-0.056 0.007s-0.032 0-0.042 0h-0.073v0.137h0.151z" fill="#000000"></path>
	<path d="M45.568 50.416h-0.080v-0.472c0-0.038-0.005-0.066-0.014-0.087s-0.022-0.035-0.037-0.045c-0.015-0.010-0.031-0.015-0.049-0.017s-0.036-0.003-0.053-0.003c-0.036 0-0.070 0.003-0.103 0.009s-0.057 0.013-0.073 0.020v0.594h-0.080v-0.953h0.080l0 0.306c0.027-0.012 0.057-0.023 0.091-0.032s0.071-0.014 0.111-0.014c0.019 0 0.041 0.001 0.064 0.004s0.046 0.011 0.067 0.024c0.021 0.014 0.039 0.035 0.054 0.063s0.022 0.068 0.022 0.12v0.481z" fill="#000000"></path>
	<path d="M46.071 50.411c-0.005 0.002-0.013 0.003-0.023 0.005s-0.022 0.002-0.035 0.004c-0.013 0-0.026 0.002-0.039 0.003s-0.026 0-0.037 0-0.044-0.002-0.062-0.007c-0.018-0.004-0.034-0.014-0.047-0.028s-0.023-0.034-0.029-0.060c-0.007-0.026-0.010-0.060-0.010-0.103v-0.431h-0.12v-0.059h0.12v-0.149l0.080-0.037v0.186h0.203v0.059h-0.203v0.424c0 0.030 0.002 0.054 0.005 0.071s0.009 0.032 0.017 0.041c0.008 0.010 0.020 0.016 0.034 0.019s0.033 0.004 0.056 0.004h0.091v0.054z" fill="#000000"></path>
	<path d="M47.127 50.294c-0.022 0.007-0.046 0.012-0.070 0.015s-0.051 0.004-0.080 0.004c-0.105 0-0.178-0.045-0.219-0.134-0.017-0.038-0.025-0.090-0.025-0.155 0-0.046 0.005-0.086 0.015-0.12 0.019-0.063 0.053-0.108 0.1-0.136s0.104-0.042 0.171-0.042c0.032 0 0.066 0.002 0.1 0.007v0.096h-0.071c-0.021 0-0.043 0.002-0.066 0.005-0.048 0.008-0.082 0.035-0.105 0.081-0.012 0.025-0.017 0.060-0.017 0.105 0 0.047 0.005 0.082 0.016 0.106 0.019 0.046 0.050 0.073 0.091 0.078 0.021 0.003 0.040 0.004 0.058 0.004h0.103v0.085zM47.473 50.021c0-0.17-0.049-0.304-0.146-0.403-0.092-0.093-0.213-0.141-0.363-0.141s-0.271 0.047-0.363 0.141c-0.097 0.099-0.146 0.233-0.146 0.403s0.048 0.304 0.146 0.402c0.092 0.095 0.213 0.142 0.363 0.142s0.271-0.047 0.363-0.142c0.097-0.098 0.146-0.232 0.146-0.402zM47.567 50.021c0 0.2-0.058 0.356-0.173 0.469-0.109 0.105-0.252 0.158-0.429 0.158s-0.32-0.053-0.429-0.158c-0.116-0.113-0.173-0.269-0.173-0.469s0.058-0.356 0.173-0.469c0.109-0.105 0.252-0.158 0.429-0.158s0.32 0.053 0.429 0.158c0.116 0.113 0.173 0.269 0.173 0.469z" fill="#000000"></path>
	<path d="M48.144 50.349c0.025 0 0.052-0 0.081-0.002s0.058-0.006 0.088-0.014c0.030-0.007 0.058-0.019 0.085-0.035s0.051-0.038 0.073-0.066c0.021-0.028 0.037-0.064 0.050-0.106s0.019-0.095 0.019-0.156c0-0.060-0.007-0.11-0.020-0.151s-0.031-0.075-0.053-0.101c-0.022-0.027-0.047-0.047-0.076-0.062s-0.058-0.025-0.088-0.032c-0.030-0.007-0.060-0.010-0.090-0.012s-0.057-0.002-0.082-0.002h-0.087v0.739h0.1zM47.963 50.416v-0.874h0.202c0.022 0 0.048 0 0.080 0.002s0.064 0.007 0.098 0.015c0.034 0.008 0.068 0.021 0.102 0.039s0.064 0.042 0.091 0.073c0.027 0.031 0.048 0.070 0.065 0.118s0.025 0.106 0.025 0.174c0 0.075-0.008 0.137-0.025 0.189s-0.039 0.094-0.066 0.128c-0.027 0.034-0.058 0.060-0.091 0.077s-0.068 0.032-0.102 0.040c-0.034 0.009-0.067 0.014-0.098 0.016s-0.057 0.002-0.078 0.002h-0.201z" fill="#000000"></path>
	<path d="M49.108 50.081c-0.030 0.008-0.062 0.017-0.097 0.028s-0.068 0.022-0.1 0.035c-0.033 0.014-0.058 0.029-0.075 0.045s-0.024 0.041-0.024 0.075c0 0.023 0.003 0.041 0.010 0.055s0.016 0.024 0.028 0.032c0.012 0.007 0.026 0.013 0.042 0.015s0.033 0.004 0.053 0.004c0.036 0 0.068-0.004 0.096-0.011s0.051-0.014 0.068-0.020v-0.256zM49.285 50.414c-0.005 0.002-0.011 0.003-0.019 0.004s-0.015 0.002-0.024 0.003c-0.008 0.001-0.016 0.002-0.024 0.003s-0.015 0-0.021 0c-0.020 0-0.037-0.002-0.051-0.007s-0.025-0.016-0.030-0.035c-0.024 0.012-0.053 0.023-0.088 0.033s-0.073 0.015-0.114 0.015c-0.025 0-0.049-0.002-0.072-0.007s-0.043-0.013-0.060-0.026c-0.017-0.012-0.031-0.029-0.041-0.050s-0.015-0.048-0.015-0.081c0-0.040 0.010-0.070 0.031-0.093s0.046-0.042 0.077-0.056c0.017-0.008 0.037-0.016 0.061-0.026s0.049-0.018 0.075-0.026c0.026-0.008 0.051-0.016 0.075-0.024s0.046-0.014 0.063-0.019v-0.117c0-0.025-0.004-0.045-0.012-0.060s-0.019-0.025-0.032-0.033c-0.013-0.007-0.029-0.012-0.047-0.015s-0.037-0.003-0.057-0.003h-0.197v-0.048c0.036-0.007 0.074-0.013 0.114-0.017s0.078-0.007 0.113-0.007c0.022 0 0.044 0.002 0.068 0.006s0.044 0.012 0.064 0.025c0.019 0.013 0.035 0.031 0.047 0.055s0.018 0.056 0.018 0.097v0.452h0.099v0.057z" fill="#000000"></path>
	<path d="M49.863 50.417h-0.071l-0.005-0.036c-0.010 0.004-0.023 0.009-0.038 0.015s-0.033 0.011-0.051 0.015c-0.019 0.004-0.038 0.008-0.058 0.011s-0.040 0.004-0.060 0.004c-0.023 0-0.047-0-0.071-0.004s-0.047-0.011-0.067-0.024c-0.020-0.014-0.037-0.035-0.050-0.063s-0.019-0.068-0.019-0.119v-0.48h0.082v0.474c0 0.035 0.004 0.062 0.012 0.082s0.019 0.035 0.034 0.045c0.014 0.010 0.032 0.016 0.051 0.018s0.040 0.003 0.063 0.003c0.040 0 0.074-0.002 0.103-0.008s0.051-0.011 0.068-0.017v-0.598h0.080v0.68z" fill="#000000"></path>
	<path d="M50.865 50.416h-0.080v-0.478c0-0.035-0.004-0.062-0.013-0.082s-0.020-0.034-0.034-0.043c-0.014-0.009-0.029-0.014-0.046-0.016s-0.033-0.003-0.049-0.003c-0.041 0-0.075 0.003-0.101 0.011s-0.048 0.014-0.064 0.021c0.010 0.025 0.015 0.058 0.015 0.098v0.491h-0.080v-0.473c0-0.034-0.004-0.061-0.012-0.081s-0.019-0.035-0.033-0.045c-0.013-0.010-0.028-0.016-0.045-0.019s-0.033-0.004-0.050-0.004c-0.040 0-0.071 0.002-0.092 0.007s-0.041 0.010-0.058 0.016v0.598h-0.080v-0.679h0.065l0.007 0.035c0.020-0.009 0.046-0.020 0.077-0.031s0.066-0.016 0.105-0.016c0.012 0 0.025 0 0.039 0.002 0.014 0 0.028 0.004 0.043 0.008s0.028 0.010 0.042 0.018c0.013 0.008 0.025 0.020 0.035 0.033 0.027-0.014 0.058-0.028 0.094-0.041s0.075-0.020 0.118-0.020c0.018 0 0.038 0.002 0.061 0.005s0.044 0.012 0.064 0.026c0.020 0.013 0.037 0.034 0.050 0.061s0.020 0.065 0.020 0.113v0.486z" fill="#000000"></path>
	<path d="M51.728 50.411c-0.041 0.010-0.095 0.015-0.164 0.015-0.015 0-0.033-0-0.053-0.003s-0.041-0.007-0.061-0.016c-0.021-0.008-0.041-0.020-0.061-0.035s-0.038-0.035-0.053-0.061c-0.016-0.026-0.029-0.057-0.038-0.095s-0.014-0.082-0.014-0.134c0-0.057 0.006-0.105 0.018-0.144s0.028-0.072 0.048-0.098c0.020-0.026 0.042-0.047 0.066-0.062s0.049-0.026 0.074-0.033c0.025-0.007 0.049-0.011 0.073-0.013s0.043-0.002 0.060-0.002c0.018 0 0.035 0 0.053 0s0.033 0.002 0.045 0.003v0.062h-0.077c-0.032 0-0.064 0.003-0.096 0.009s-0.062 0.018-0.088 0.037c-0.027 0.019-0.049 0.048-0.066 0.085s-0.026 0.088-0.026 0.151c0 0.065 0.008 0.116 0.023 0.153s0.035 0.065 0.059 0.084c0.024 0.019 0.050 0.031 0.078 0.036s0.056 0.007 0.082 0.007h0.12v0.054z" fill="#000000"></path>
	<path d="M52.103 50.367c0.022 0 0.046-0.003 0.069-0.010s0.045-0.021 0.064-0.042c0.019-0.021 0.035-0.050 0.047-0.089s0.019-0.088 0.019-0.15c0-0.062-0.006-0.112-0.019-0.15s-0.028-0.068-0.047-0.089c-0.019-0.021-0.041-0.035-0.064-0.042s-0.047-0.011-0.069-0.011c-0.022 0-0.046 0.004-0.070 0.011s-0.046 0.021-0.065 0.042c-0.019 0.021-0.035 0.050-0.048 0.089s-0.019 0.088-0.019 0.15c0 0.062 0.006 0.112 0.019 0.15s0.028 0.068 0.048 0.089c0.019 0.021 0.041 0.035 0.065 0.042s0.048 0.010 0.070 0.010zM52.101 50.429c-0.015 0-0.032-0-0.052-0.003s-0.040-0.007-0.060-0.015c-0.021-0.008-0.042-0.019-0.062-0.034s-0.038-0.035-0.054-0.061c-0.016-0.026-0.028-0.058-0.038-0.096s-0.014-0.084-0.014-0.139c0-0.054 0.005-0.101 0.015-0.139s0.023-0.071 0.039-0.098c0.016-0.027 0.035-0.048 0.055-0.064s0.041-0.028 0.062-0.037c0.021-0.009 0.042-0.014 0.062-0.017s0.037-0.004 0.053-0.004c0.015 0 0.032 0 0.052 0.003s0.040 0.007 0.060 0.015c0.021 0.008 0.041 0.019 0.061 0.034s0.038 0.035 0.054 0.061c0.016 0.026 0.029 0.058 0.039 0.096s0.014 0.084 0.014 0.139c0 0.054-0.005 0.101-0.015 0.139s-0.023 0.071-0.039 0.098c-0.016 0.027-0.035 0.048-0.055 0.064s-0.042 0.028-0.063 0.037c-0.021 0.009-0.042 0.014-0.061 0.017s-0.037 0.004-0.052 0.004z" fill="#000000"></path>
	<path d="M53.349 50.416h-0.080v-0.478c0-0.035-0.005-0.062-0.013-0.082s-0.020-0.034-0.034-0.043c-0.014-0.009-0.029-0.014-0.046-0.016s-0.033-0.003-0.049-0.003c-0.041 0-0.075 0.003-0.101 0.011s-0.048 0.014-0.064 0.021c0.010 0.025 0.015 0.058 0.015 0.098v0.491h-0.080v-0.473c0-0.034-0.004-0.061-0.013-0.081s-0.019-0.035-0.033-0.045c-0.013-0.010-0.028-0.016-0.045-0.019s-0.033-0.004-0.050-0.004c-0.040 0-0.071 0.002-0.092 0.007s-0.041 0.010-0.058 0.016v0.598h-0.080v-0.679h0.065l0.007 0.035c0.020-0.009 0.046-0.020 0.077-0.031s0.066-0.016 0.105-0.016c0.012 0 0.025 0 0.039 0.002 0.014 0 0.029 0.004 0.043 0.008s0.029 0.010 0.042 0.018c0.013 0.008 0.025 0.020 0.035 0.033 0.027-0.014 0.058-0.028 0.094-0.041s0.076-0.020 0.118-0.020c0.018 0 0.039 0.002 0.061 0.005s0.044 0.012 0.064 0.026c0.020 0.013 0.037 0.034 0.050 0.061s0.020 0.065 0.020 0.113v0.486z" fill="#000000"></path>
	<path d="M54.344 50.416h-0.080v-0.478c0-0.035-0.004-0.062-0.013-0.082s-0.020-0.034-0.034-0.043c-0.014-0.009-0.029-0.014-0.046-0.016s-0.033-0.003-0.049-0.003c-0.041 0-0.075 0.003-0.101 0.011s-0.048 0.014-0.064 0.021c0.010 0.025 0.015 0.058 0.015 0.098v0.491h-0.080v-0.473c0-0.034-0.004-0.061-0.012-0.081s-0.019-0.035-0.033-0.045c-0.013-0.010-0.028-0.016-0.045-0.019s-0.033-0.004-0.050-0.004c-0.040 0-0.071 0.002-0.092 0.007s-0.041 0.010-0.058 0.016v0.598h-0.080v-0.679h0.065l0.007 0.035c0.020-0.009 0.046-0.020 0.077-0.031s0.066-0.016 0.105-0.016c0.012 0 0.025 0 0.039 0.002 0.014 0 0.028 0.004 0.043 0.008s0.028 0.010 0.042 0.018c0.013 0.008 0.025 0.020 0.035 0.033 0.027-0.014 0.058-0.028 0.094-0.041s0.075-0.020 0.118-0.020c0.018 0 0.038 0.002 0.061 0.005s0.044 0.012 0.064 0.026c0.020 0.013 0.037 0.034 0.050 0.061s0.020 0.065 0.020 0.113v0.486z" fill="#000000"></path>
	<path d="M55.004 50.417h-0.071l-0.005-0.036c-0.010 0.004-0.023 0.009-0.038 0.015s-0.033 0.011-0.051 0.015c-0.019 0.004-0.038 0.008-0.058 0.011s-0.040 0.004-0.060 0.004c-0.023 0-0.047-0-0.071-0.004s-0.047-0.011-0.067-0.024c-0.020-0.014-0.037-0.035-0.050-0.063s-0.019-0.068-0.019-0.119v-0.48h0.082v0.474c0 0.035 0.004 0.062 0.012 0.082s0.019 0.035 0.034 0.045c0.014 0.010 0.032 0.016 0.051 0.018s0.040 0.003 0.063 0.003c0.040 0 0.074-0.002 0.103-0.008s0.051-0.011 0.068-0.017v-0.598h0.080v0.68z" fill="#000000"></path>
	<path d="M55.678 50.416h-0.082v-0.474c0-0.035-0.004-0.062-0.012-0.082s-0.019-0.034-0.034-0.044c-0.015-0.009-0.032-0.016-0.050-0.018s-0.040-0.004-0.062-0.004c-0.040 0-0.075 0.003-0.104 0.008s-0.052 0.011-0.069 0.017v0.598h-0.080v-0.679h0.072l0.004 0.036c0.010-0.004 0.023-0.009 0.039-0.015s0.033-0.010 0.051-0.015c0.019-0.005 0.038-0.009 0.058-0.012s0.040-0.005 0.060-0.005c0.023 0 0.047 0.001 0.072 0.004s0.047 0.011 0.068 0.024c0.020 0.014 0.037 0.035 0.050 0.063s0.019 0.068 0.019 0.119v0.48z" fill="#000000"></path>
	<path d="M55.933 50.416h-0.082v-0.679h0.082v0.679zM55.942 49.573h-0.099v-0.090h0.099v0.090z" fill="#000000"></path>
	<path d="M56.521 50.411c-0.041 0.010-0.095 0.015-0.164 0.015-0.015 0-0.033-0-0.053-0.003s-0.041-0.007-0.061-0.016c-0.021-0.008-0.041-0.020-0.061-0.035s-0.038-0.035-0.053-0.061c-0.016-0.026-0.029-0.057-0.038-0.095s-0.014-0.082-0.014-0.134c0-0.057 0.006-0.105 0.018-0.144s0.028-0.072 0.048-0.098c0.020-0.026 0.042-0.047 0.066-0.062s0.049-0.026 0.074-0.033c0.025-0.007 0.049-0.011 0.073-0.013s0.043-0.002 0.060-0.002c0.018 0 0.035 0 0.053 0s0.033 0.002 0.045 0.003v0.062h-0.077c-0.032 0-0.064 0.003-0.096 0.009s-0.062 0.018-0.088 0.037c-0.027 0.019-0.049 0.048-0.066 0.085s-0.026 0.088-0.026 0.151c0 0.065 0.008 0.116 0.023 0.153s0.035 0.065 0.059 0.084c0.024 0.019 0.050 0.031 0.078 0.036s0.056 0.007 0.082 0.007h0.12v0.054z" fill="#000000"></path>
	<path d="M56.986 50.081c-0.030 0.008-0.062 0.017-0.097 0.028s-0.068 0.022-0.1 0.035c-0.033 0.014-0.058 0.029-0.074 0.045s-0.024 0.041-0.024 0.075c0 0.023 0.003 0.041 0.010 0.055s0.016 0.024 0.028 0.032c0.012 0.007 0.026 0.013 0.042 0.015s0.033 0.004 0.053 0.004c0.036 0 0.068-0.004 0.096-0.011s0.051-0.014 0.068-0.020v-0.256zM57.163 50.414c-0.005 0.002-0.011 0.003-0.019 0.004s-0.015 0.002-0.024 0.003c-0.008 0.001-0.016 0.002-0.024 0.003s-0.015 0-0.020 0c-0.020 0-0.037-0.002-0.052-0.007s-0.024-0.016-0.030-0.035c-0.024 0.012-0.053 0.023-0.088 0.033s-0.073 0.015-0.114 0.015c-0.025 0-0.049-0.002-0.072-0.007s-0.043-0.013-0.060-0.026c-0.017-0.012-0.031-0.029-0.041-0.050s-0.015-0.048-0.015-0.081c0-0.040 0.010-0.070 0.031-0.093s0.046-0.042 0.077-0.056c0.017-0.008 0.037-0.016 0.061-0.026s0.049-0.018 0.075-0.026c0.026-0.008 0.051-0.016 0.076-0.024s0.045-0.014 0.063-0.019v-0.117c0-0.025-0.004-0.045-0.012-0.060s-0.019-0.025-0.032-0.033c-0.013-0.007-0.029-0.012-0.047-0.015s-0.037-0.003-0.057-0.003h-0.197v-0.048c0.036-0.007 0.074-0.013 0.115-0.017s0.078-0.007 0.113-0.007c0.022 0 0.044 0.002 0.068 0.006s0.044 0.012 0.064 0.025c0.019 0.013 0.035 0.031 0.047 0.055s0.018 0.056 0.018 0.097v0.452h0.099v0.057z" fill="#000000"></path>
	<path d="M57.577 50.411c-0.005 0.002-0.013 0.003-0.023 0.005s-0.022 0.002-0.035 0.004c-0.013 0-0.026 0.002-0.039 0.003s-0.026 0-0.037 0-0.044-0.002-0.062-0.007c-0.018-0.004-0.034-0.014-0.047-0.028s-0.023-0.034-0.029-0.060c-0.007-0.026-0.010-0.060-0.010-0.103v-0.431h-0.12v-0.059h0.12v-0.149l0.080-0.037v0.186h0.203v0.059h-0.203v0.424c0 0.030 0.002 0.054 0.005 0.071s0.009 0.032 0.017 0.041c0.008 0.010 0.020 0.016 0.034 0.019s0.033 0.004 0.056 0.004h0.091v0.054z" fill="#000000"></path>
	<path d="M60.056 52.524h-0.087v-0.724h0.087v0.724zM60.065 51.625h-0.106v-0.096h0.106v0.096z" fill="#000000"></path>
	<path d="M58.179 50.367c0.023 0 0.046-0.003 0.069-0.010s0.045-0.021 0.064-0.042c0.019-0.021 0.035-0.050 0.047-0.089s0.019-0.088 0.019-0.15c0-0.062-0.006-0.112-0.019-0.15s-0.028-0.068-0.047-0.089c-0.019-0.021-0.041-0.035-0.064-0.042s-0.047-0.011-0.069-0.011c-0.022 0-0.046 0.004-0.070 0.011s-0.046 0.021-0.065 0.042c-0.019 0.021-0.035 0.050-0.047 0.089s-0.019 0.088-0.019 0.15c0 0.062 0.006 0.112 0.019 0.15s0.028 0.068 0.047 0.089c0.019 0.021 0.041 0.035 0.065 0.042s0.048 0.010 0.070 0.010zM58.176 50.429c-0.015 0-0.032-0-0.052-0.003s-0.040-0.007-0.060-0.015c-0.021-0.008-0.042-0.019-0.062-0.034s-0.038-0.035-0.054-0.061c-0.016-0.026-0.029-0.058-0.038-0.096s-0.014-0.084-0.014-0.139c0-0.054 0.005-0.101 0.015-0.139s0.023-0.071 0.040-0.098c0.016-0.027 0.035-0.048 0.055-0.064s0.041-0.028 0.062-0.037c0.021-0.009 0.042-0.014 0.062-0.017s0.037-0.004 0.053-0.004c0.015 0 0.032 0 0.052 0.003s0.040 0.007 0.060 0.015c0.021 0.008 0.041 0.019 0.061 0.034s0.038 0.035 0.054 0.061c0.016 0.026 0.029 0.058 0.039 0.096s0.014 0.084 0.014 0.139c0 0.054-0.005 0.101-0.015 0.139s-0.023 0.071-0.040 0.098c-0.016 0.027-0.035 0.048-0.055 0.064s-0.042 0.028-0.063 0.037c-0.021 0.009-0.042 0.014-0.061 0.017s-0.037 0.004-0.052 0.004z" fill="#000000"></path>
	<path d="M59.097 50.416h-0.082v-0.474c0-0.035-0.004-0.062-0.012-0.082s-0.019-0.034-0.034-0.044c-0.015-0.009-0.032-0.016-0.050-0.018s-0.040-0.004-0.062-0.004c-0.040 0-0.075 0.003-0.103 0.008s-0.052 0.011-0.069 0.017v0.598h-0.080v-0.679h0.072l0.004 0.036c0.010-0.004 0.023-0.009 0.039-0.015s0.033-0.010 0.051-0.015c0.018-0.005 0.038-0.009 0.058-0.012s0.040-0.005 0.060-0.005c0.023 0 0.047 0.001 0.072 0.004s0.047 0.011 0.068 0.024c0.020 0.014 0.037 0.035 0.050 0.063s0.019 0.068 0.019 0.119v0.48z" fill="#000000"></path>
	<path d="M59.398 50.358c0.021 0 0.040-0.002 0.058-0.004s0.034-0.008 0.047-0.015c0.013-0.007 0.024-0.017 0.032-0.028s0.012-0.027 0.012-0.045c0-0.012-0.002-0.024-0.007-0.035s-0.011-0.021-0.019-0.030c-0.008-0.009-0.016-0.018-0.026-0.026s-0.018-0.015-0.026-0.021c-0.027-0.020-0.055-0.041-0.085-0.063s-0.056-0.042-0.080-0.060c-0.025-0.020-0.044-0.042-0.057-0.065s-0.020-0.050-0.020-0.078c0-0.038 0.010-0.068 0.029-0.090s0.042-0.037 0.068-0.047c0.026-0.010 0.053-0.016 0.081-0.018s0.050-0.003 0.068-0.003c0.028 0 0.055 0 0.080 0.003s0.044 0.004 0.058 0.006v0.059h-0.15c-0.021 0-0.041 0.001-0.060 0.004s-0.035 0.007-0.049 0.014c-0.014 0.007-0.025 0.015-0.034 0.027s-0.013 0.026-0.013 0.045c0 0.010 0.002 0.020 0.007 0.030s0.010 0.019 0.018 0.028c0.007 0.009 0.016 0.017 0.024 0.024s0.017 0.014 0.026 0.020c0.029 0.021 0.058 0.042 0.086 0.063s0.055 0.043 0.082 0.066c0.025 0.020 0.044 0.042 0.058 0.066s0.021 0.050 0.021 0.080c0 0.038-0.009 0.069-0.027 0.091s-0.040 0.039-0.065 0.050c-0.025 0.011-0.052 0.018-0.080 0.021s-0.052 0.004-0.072 0.004c-0.035 0-0.066-0-0.095-0.004s-0.050-0.005-0.064-0.007v-0.059h0.171z" fill="#000000"></path>
	<path d="M60.454 50.411c-0.041 0.010-0.095 0.015-0.164 0.015-0.015 0-0.033-0-0.053-0.003s-0.040-0.007-0.061-0.016c-0.021-0.008-0.041-0.020-0.061-0.035s-0.038-0.035-0.054-0.061c-0.016-0.026-0.029-0.057-0.038-0.095s-0.014-0.082-0.014-0.134c0-0.057 0.006-0.105 0.018-0.144s0.028-0.072 0.048-0.098c0.020-0.026 0.042-0.047 0.066-0.062s0.049-0.026 0.074-0.033c0.025-0.007 0.049-0.011 0.073-0.013s0.043-0.002 0.060-0.002c0.017 0 0.035 0 0.053 0s0.033 0.002 0.045 0.003v0.062h-0.077c-0.032 0-0.064 0.003-0.096 0.009s-0.062 0.018-0.089 0.037c-0.027 0.019-0.048 0.048-0.066 0.085s-0.026 0.088-0.026 0.151c0 0.065 0.008 0.116 0.023 0.153s0.035 0.065 0.059 0.084c0.024 0.019 0.050 0.031 0.078 0.036s0.056 0.007 0.082 0.007h0.12v0.054z" fill="#000000"></path>
	<path d="M60.83 50.367c0.023 0 0.046-0.003 0.069-0.010s0.045-0.021 0.064-0.042c0.019-0.021 0.035-0.050 0.047-0.089s0.019-0.088 0.019-0.15c0-0.062-0.006-0.112-0.019-0.15s-0.028-0.068-0.047-0.089c-0.019-0.021-0.041-0.035-0.064-0.042s-0.047-0.011-0.069-0.011c-0.022 0-0.046 0.004-0.070 0.011s-0.046 0.021-0.065 0.042c-0.019 0.021-0.035 0.050-0.047 0.089s-0.019 0.088-0.019 0.15c0 0.062 0.006 0.112 0.019 0.15s0.028 0.068 0.047 0.089c0.019 0.021 0.041 0.035 0.065 0.042s0.048 0.010 0.070 0.010zM60.828 50.429c-0.015 0-0.032-0-0.052-0.003s-0.040-0.007-0.060-0.015c-0.021-0.008-0.042-0.019-0.062-0.034s-0.038-0.035-0.054-0.061c-0.016-0.026-0.029-0.058-0.038-0.096s-0.014-0.084-0.014-0.139c0-0.054 0.005-0.101 0.015-0.139s0.023-0.071 0.040-0.098c0.016-0.027 0.035-0.048 0.055-0.064s0.041-0.028 0.062-0.037c0.021-0.009 0.042-0.014 0.062-0.017s0.037-0.004 0.053-0.004c0.015 0 0.032 0 0.052 0.003s0.040 0.007 0.060 0.015c0.021 0.008 0.041 0.019 0.061 0.034s0.038 0.035 0.054 0.061c0.016 0.026 0.029 0.058 0.039 0.096s0.014 0.084 0.014 0.139c0 0.054-0.005 0.101-0.015 0.139s-0.023 0.071-0.040 0.098c-0.016 0.027-0.035 0.048-0.055 0.064s-0.042 0.028-0.063 0.037c-0.021 0.009-0.042 0.014-0.061 0.017s-0.037 0.004-0.052 0.004z" fill="#000000"></path>
	<path d="M61.335 50.416h-0.080v-0.679h0.071l0.005 0.060c0.018-0.017 0.042-0.033 0.072-0.050s0.069-0.025 0.118-0.025c0.026 0 0.049 0 0.069 0.003v0.070h-0.084c-0.024 0-0.045 0.002-0.062 0.005s-0.033 0.007-0.045 0.011c-0.013 0.004-0.025 0.010-0.034 0.016s-0.020 0.013-0.029 0.019v0.569z" fill="#000000"></path>
	<path d="M61.832 50.359c0.026 0 0.054-0.002 0.084-0.007s0.059-0.017 0.086-0.036c0.027-0.019 0.049-0.047 0.067-0.085s0.027-0.090 0.027-0.156c0-0.058-0.006-0.106-0.019-0.142s-0.029-0.064-0.048-0.084c-0.020-0.020-0.041-0.034-0.065-0.041s-0.047-0.011-0.068-0.011c-0.041 0-0.071 0.002-0.091 0.007s-0.036 0.009-0.048 0.014v0.54h0.075zM61.757 50.685h-0.080v-0.948h0.071l0.004 0.035c0.018-0.010 0.041-0.019 0.068-0.028s0.060-0.013 0.099-0.013c0.022 0 0.049 0.003 0.080 0.010s0.059 0.021 0.086 0.044c0.027 0.023 0.050 0.056 0.069 0.101s0.028 0.104 0.028 0.179c0 0.054-0.006 0.101-0.017 0.139s-0.027 0.071-0.046 0.098c-0.019 0.027-0.040 0.048-0.064 0.064s-0.048 0.028-0.072 0.036c-0.024 0.008-0.047 0.014-0.069 0.016s-0.041 0.004-0.057 0.004c-0.020 0-0.038-0-0.055-0.002-0.017-0-0.032-0.003-0.043-0.005v0.27z" fill="#000000"></path>
	<path d="M62.468 50.416h-0.125v-0.116h0.125v0.116z" fill="#000000"></path>
	<path d="M63.398 50.118l-0.18-0.519-0.186 0.519h0.366zM63.585 50.416h-0.088l-0.080-0.23h-0.404l-0.082 0.23h-0.082l0.32-0.874h0.105l0.312 0.874z" fill="#000000"></path>
	<path d="M63.747 50.416h-0.082v-0.953h0.082v0.953z" fill="#000000"></path>
	<path d="M64.009 50.416h-0.082v-0.953h0.082v0.953z" fill="#000000"></path>
	<path d="M64.551 50.416h-0.080v-0.679h0.071l0.005 0.060c0.018-0.017 0.042-0.033 0.071-0.050s0.069-0.025 0.118-0.025c0.026 0 0.049 0 0.069 0.003v0.070h-0.084c-0.024 0-0.045 0.002-0.062 0.005s-0.033 0.007-0.046 0.011c-0.013 0.004-0.024 0.010-0.034 0.016s-0.020 0.013-0.029 0.019v0.569z" fill="#000000"></path>
	<path d="M64.974 50.416h-0.082v-0.679h0.082v0.679zM64.983 49.573h-0.099v-0.090h0.099v0.090z" fill="#000000"></path>
	<path d="M65.375 50.122c0.019 0 0.038-0.002 0.058-0.006s0.037-0.012 0.053-0.024c0.015-0.012 0.028-0.029 0.038-0.051s0.015-0.050 0.015-0.086c0-0.035-0.005-0.064-0.015-0.086s-0.023-0.040-0.038-0.053c-0.015-0.013-0.033-0.022-0.053-0.026s-0.039-0.007-0.058-0.007c-0.019 0-0.038 0.002-0.058 0.007s-0.037 0.013-0.053 0.026c-0.015 0.013-0.028 0.030-0.038 0.053s-0.015 0.051-0.015 0.086c0 0.036 0.005 0.065 0.015 0.086s0.023 0.038 0.038 0.051c0.015 0.012 0.033 0.020 0.053 0.024s0.039 0.006 0.058 0.006zM65.251 50.388c-0.007 0.005-0.015 0.011-0.023 0.018s-0.015 0.015-0.021 0.024c-0.007 0.009-0.012 0.020-0.016 0.033s-0.006 0.028-0.006 0.045c0 0.025 0.005 0.047 0.016 0.064s0.024 0.031 0.042 0.041c0.017 0.010 0.038 0.017 0.061 0.022s0.048 0.007 0.074 0.007c0.024 0 0.049-0.002 0.075-0.006s0.050-0.012 0.071-0.022c0.022-0.011 0.040-0.026 0.053-0.045s0.021-0.043 0.021-0.073c0-0.026-0.005-0.047-0.015-0.061s-0.022-0.024-0.039-0.031c-0.016-0.007-0.035-0.010-0.055-0.012s-0.042-0.002-0.064-0.002h-0.174zM65.429 50.316c0.025 0 0.052 0 0.081 0.002s0.056 0.008 0.080 0.018c0.025 0.010 0.045 0.027 0.061 0.049s0.024 0.054 0.024 0.095c0 0.047-0.009 0.084-0.028 0.113s-0.043 0.050-0.073 0.066c-0.029 0.016-0.063 0.027-0.1 0.032s-0.074 0.008-0.11 0.008c-0.033 0-0.066-0.002-0.097-0.007s-0.059-0.014-0.083-0.028c-0.024-0.014-0.044-0.033-0.058-0.058s-0.022-0.057-0.022-0.096c0-0.022 0.004-0.042 0.011-0.060s0.017-0.035 0.029-0.050c0.012-0.015 0.025-0.028 0.040-0.040s0.030-0.020 0.045-0.028c-0.012-0.009-0.021-0.020-0.028-0.035s-0.011-0.032-0.011-0.051c0-0.018 0.006-0.035 0.017-0.051s0.025-0.027 0.040-0.034c-0.015-0.007-0.029-0.016-0.042-0.028s-0.025-0.026-0.036-0.043c-0.011-0.017-0.019-0.036-0.026-0.058s-0.009-0.047-0.009-0.076c0-0.053 0.009-0.094 0.029-0.125s0.042-0.054 0.068-0.069c0.026-0.015 0.053-0.025 0.080-0.030s0.048-0.007 0.064-0.007c0.016 0 0.036 0.002 0.061 0.005s0.050 0.012 0.076 0.026c0.013-0.003 0.029-0.007 0.047-0.012s0.037-0.009 0.057-0.013c0.020-0.004 0.038-0.008 0.057-0.011s0.034-0.006 0.046-0.008v0.080h-0.157c0.017 0.018 0.030 0.039 0.040 0.064s0.015 0.058 0.015 0.096c0 0.038-0.005 0.069-0.015 0.095s-0.023 0.047-0.039 0.063c-0.016 0.017-0.034 0.030-0.054 0.038s-0.040 0.015-0.060 0.019c-0.020 0.004-0.038 0.006-0.056 0.007s-0.032 0-0.042 0h-0.072v0.137h0.151z" fill="#000000"></path>
	<path d="M66.295 50.416h-0.080v-0.472c0-0.038-0.005-0.066-0.015-0.087s-0.022-0.035-0.037-0.045c-0.015-0.010-0.032-0.015-0.049-0.017s-0.036-0.003-0.053-0.003-0.070 0.003-0.103 0.009c-0.033 0.006-0.057 0.013-0.073 0.020v0.594h-0.080v-0.953h0.080l0 0.306c0.027-0.012 0.057-0.023 0.091-0.032s0.071-0.014 0.111-0.014c0.019 0 0.041 0.001 0.064 0.004s0.046 0.011 0.067 0.024c0.021 0.014 0.039 0.035 0.054 0.063s0.022 0.068 0.022 0.12v0.481z" fill="#000000"></path>
	<path d="M66.799 50.411c-0.005 0.002-0.013 0.003-0.023 0.005s-0.022 0.002-0.035 0.004c-0.013 0-0.026 0.002-0.039 0.003s-0.026 0-0.037 0-0.044-0.002-0.062-0.007c-0.018-0.004-0.034-0.014-0.047-0.028s-0.023-0.034-0.029-0.060c-0.007-0.026-0.010-0.060-0.010-0.103v-0.431h-0.12v-0.059h0.12v-0.149l0.080-0.037v0.186h0.203v0.059h-0.203v0.424c0 0.030 0.002 0.054 0.005 0.071s0.009 0.032 0.017 0.041c0.008 0.010 0.020 0.016 0.034 0.019s0.033 0.004 0.055 0.004h0.091v0.054z" fill="#000000"></path>
	<path d="M67.020 50.358c0.021 0 0.040-0.002 0.058-0.004s0.034-0.008 0.047-0.015c0.013-0.007 0.024-0.017 0.032-0.028s0.012-0.027 0.012-0.045c0-0.012-0.002-0.024-0.007-0.035s-0.011-0.021-0.019-0.030c-0.008-0.009-0.016-0.018-0.025-0.026s-0.018-0.015-0.026-0.021c-0.027-0.020-0.055-0.041-0.085-0.063s-0.056-0.042-0.080-0.060c-0.025-0.020-0.044-0.042-0.057-0.065s-0.019-0.050-0.019-0.078c0-0.038 0.010-0.068 0.029-0.090s0.042-0.037 0.068-0.047c0.026-0.010 0.053-0.016 0.081-0.018s0.050-0.003 0.068-0.003c0.028 0 0.055 0 0.080 0.003s0.044 0.004 0.058 0.006v0.059h-0.15c-0.021 0-0.041 0.001-0.060 0.004s-0.035 0.007-0.049 0.014c-0.014 0.007-0.025 0.015-0.034 0.027s-0.013 0.026-0.013 0.045c0 0.010 0.002 0.020 0.007 0.030s0.011 0.019 0.018 0.028c0.007 0.009 0.016 0.017 0.024 0.024s0.017 0.014 0.026 0.020c0.029 0.021 0.058 0.042 0.086 0.063s0.055 0.043 0.082 0.066c0.024 0.020 0.044 0.042 0.058 0.066s0.022 0.050 0.022 0.080c0 0.038-0.009 0.069-0.027 0.091s-0.040 0.039-0.065 0.050c-0.025 0.011-0.052 0.018-0.080 0.021s-0.052 0.004-0.072 0.004c-0.035 0-0.066-0-0.095-0.004s-0.049-0.005-0.064-0.007v-0.059h0.171z" fill="#000000"></path>
	<path d="M67.749 50.416h-0.080v-0.679h0.071l0.005 0.060c0.018-0.017 0.042-0.033 0.071-0.050s0.069-0.025 0.118-0.025c0.026 0 0.049 0 0.069 0.003v0.070h-0.084c-0.024 0-0.045 0.002-0.062 0.005s-0.033 0.007-0.046 0.011c-0.013 0.004-0.024 0.010-0.034 0.016s-0.020 0.013-0.029 0.019v0.569z" fill="#000000"></path>
	<path d="M68.504 50.014c0-0.045-0.004-0.082-0.013-0.111s-0.020-0.053-0.035-0.071c-0.015-0.018-0.033-0.030-0.054-0.037s-0.044-0.011-0.068-0.011c-0.024 0-0.047 0.004-0.070 0.013s-0.042 0.022-0.060 0.040c-0.018 0.018-0.033 0.042-0.045 0.071s-0.020 0.065-0.023 0.108h0.368zM68.571 50.408c-0.016 0.003-0.041 0.006-0.075 0.011s-0.078 0.007-0.134 0.007c-0.028 0-0.059-0.003-0.094-0.010s-0.069-0.022-0.101-0.045c-0.032-0.023-0.058-0.057-0.081-0.101s-0.033-0.104-0.033-0.181c0-0.084 0.011-0.151 0.032-0.2s0.047-0.086 0.077-0.111c0.030-0.025 0.062-0.041 0.094-0.048s0.060-0.011 0.082-0.011c0.026 0 0.053 0.003 0.082 0.011s0.055 0.022 0.079 0.043c0.024 0.022 0.044 0.054 0.059 0.095s0.024 0.097 0.024 0.165v0.045h-0.448c0 0.066 0.008 0.117 0.024 0.154s0.037 0.065 0.063 0.083c0.026 0.018 0.055 0.030 0.087 0.034s0.065 0.007 0.097 0.007h0.164v0.051z" fill="#000000"></path>
	<path d="M68.861 50.358c0.021 0 0.040-0.002 0.058-0.004s0.034-0.008 0.047-0.015c0.013-0.007 0.024-0.017 0.032-0.028s0.012-0.027 0.012-0.045c0-0.012-0.002-0.024-0.007-0.035s-0.011-0.021-0.019-0.030c-0.008-0.009-0.016-0.018-0.025-0.026s-0.018-0.015-0.026-0.021c-0.027-0.020-0.055-0.041-0.085-0.063s-0.056-0.042-0.080-0.060c-0.025-0.020-0.044-0.042-0.057-0.065s-0.019-0.050-0.019-0.078c0-0.038 0.010-0.068 0.029-0.090s0.042-0.037 0.068-0.047c0.026-0.010 0.053-0.016 0.081-0.018s0.050-0.003 0.068-0.003c0.028 0 0.055 0 0.080 0.003s0.044 0.004 0.058 0.006v0.059h-0.15c-0.021 0-0.041 0.001-0.060 0.004s-0.035 0.007-0.049 0.014c-0.014 0.007-0.025 0.015-0.034 0.027s-0.013 0.026-0.013 0.045c0 0.010 0.002 0.020 0.007 0.030s0.011 0.019 0.018 0.028c0.007 0.009 0.016 0.017 0.024 0.024s0.017 0.014 0.026 0.020c0.029 0.021 0.058 0.042 0.086 0.063s0.055 0.043 0.082 0.066c0.024 0.020 0.044 0.042 0.058 0.066s0.022 0.050 0.022 0.080c0 0.038-0.009 0.069-0.027 0.091s-0.040 0.039-0.065 0.050c-0.025 0.011-0.052 0.018-0.080 0.021s-0.052 0.004-0.072 0.004c-0.035 0-0.066-0-0.095-0.004s-0.049-0.005-0.064-0.007v-0.059h0.171z" fill="#000000"></path>
	<path d="M69.642 50.014c0-0.045-0.004-0.082-0.013-0.111s-0.020-0.053-0.035-0.071c-0.015-0.018-0.033-0.030-0.054-0.037s-0.044-0.011-0.068-0.011c-0.024 0-0.047 0.004-0.070 0.013s-0.042 0.022-0.060 0.040c-0.018 0.018-0.033 0.042-0.045 0.071s-0.020 0.065-0.023 0.108h0.368zM69.709 50.408c-0.016 0.003-0.041 0.006-0.075 0.011s-0.078 0.007-0.134 0.007c-0.028 0-0.059-0.003-0.094-0.010s-0.069-0.022-0.101-0.045c-0.032-0.023-0.058-0.057-0.081-0.101s-0.033-0.104-0.033-0.181c0-0.084 0.011-0.151 0.032-0.2s0.047-0.086 0.077-0.111c0.030-0.025 0.062-0.041 0.094-0.048s0.060-0.011 0.082-0.011c0.026 0 0.053 0.003 0.082 0.011s0.055 0.022 0.079 0.043c0.024 0.022 0.044 0.054 0.059 0.095s0.024 0.097 0.024 0.165v0.045h-0.448c0 0.066 0.008 0.117 0.024 0.154s0.037 0.065 0.063 0.083c0.026 0.018 0.055 0.030 0.087 0.034s0.065 0.007 0.097 0.007h0.164v0.051z" fill="#000000"></path>
	<path d="M69.952 50.416h-0.080v-0.679h0.071l0.005 0.060c0.018-0.017 0.042-0.033 0.071-0.050s0.069-0.025 0.118-0.025c0.026 0 0.049 0 0.069 0.003v0.070h-0.084c-0.024 0-0.045 0.002-0.062 0.005s-0.033 0.007-0.046 0.011c-0.013 0.004-0.024 0.010-0.034 0.016s-0.020 0.013-0.029 0.019v0.569z" fill="#000000"></path>
	<path d="M70.556 50.416h-0.117l-0.226-0.679h0.084l0.2 0.62h0.006l0.2-0.62h0.081l-0.227 0.679z" fill="#000000"></path>
	<path d="M71.296 50.014c0-0.045-0.004-0.082-0.013-0.111s-0.020-0.053-0.035-0.071c-0.015-0.018-0.033-0.030-0.054-0.037s-0.044-0.011-0.069-0.011c-0.024 0-0.047 0.004-0.070 0.013s-0.042 0.022-0.060 0.040c-0.018 0.018-0.033 0.042-0.045 0.071s-0.020 0.065-0.023 0.108h0.368zM71.363 50.408c-0.016 0.003-0.041 0.006-0.075 0.011s-0.078 0.007-0.134 0.007c-0.028 0-0.059-0.003-0.094-0.010s-0.069-0.022-0.101-0.045c-0.032-0.023-0.058-0.057-0.081-0.101s-0.033-0.104-0.033-0.181c0-0.084 0.011-0.151 0.032-0.2s0.047-0.086 0.077-0.111c0.030-0.025 0.062-0.041 0.094-0.048s0.060-0.011 0.082-0.011c0.026 0 0.053 0.003 0.082 0.011s0.055 0.022 0.079 0.043c0.024 0.022 0.044 0.054 0.059 0.095s0.024 0.097 0.024 0.165v0.045h-0.448c0 0.066 0.008 0.117 0.024 0.154s0.037 0.065 0.063 0.083c0.026 0.018 0.055 0.030 0.087 0.034s0.065 0.007 0.097 0.007h0.164v0.051z" fill="#000000"></path>
	<path d="M71.912 49.795h-0.075c-0.026 0-0.054 0.002-0.085 0.007s-0.060 0.017-0.086 0.036c-0.027 0.019-0.049 0.048-0.067 0.086s-0.027 0.090-0.027 0.156c0 0.059 0.006 0.106 0.019 0.142s0.029 0.064 0.049 0.083c0.020 0.020 0.041 0.033 0.065 0.040s0.047 0.010 0.069 0.010c0.040 0 0.070-0.002 0.090-0.007s0.036-0.010 0.048-0.014v-0.54zM71.994 50.416h-0.071l-0.005-0.034c-0.018 0.010-0.040 0.019-0.066 0.028s-0.060 0.013-0.1 0.013c-0.022 0-0.049-0.004-0.079-0.011s-0.058-0.023-0.086-0.047c-0.027-0.024-0.050-0.058-0.069-0.103s-0.028-0.105-0.028-0.181c0-0.055 0.006-0.101 0.017-0.139s0.027-0.070 0.046-0.096c0.019-0.026 0.040-0.047 0.064-0.062s0.048-0.027 0.072-0.035c0.024-0.008 0.047-0.013 0.069-0.015s0.041-0.003 0.057-0.003c0.019 0 0.037 0 0.055 0.002 0.017 0 0.032 0.003 0.042 0.004v-0.274h0.082v0.953z" fill="#000000"></path>
	<path d="M72.318 50.416h-0.125v-0.116h0.125v0.116z" fill="#000000"></path>
	<path d="M29.593 10.084v-3.885h-3.975v6.453c0 1.067-0.904 1.933-2.014 1.933s-2.014-0.867-2.014-1.933v-6.453h-3.975v6.433c2.48 0.76 4.294 2.951 4.396 5.557 0.508 0.135 1.041 0.213 1.593 0.213 1.369 0 2.627-0.448 3.637-1.192v-2.809c0-1.785 0.933-3.363 2.352-4.316z" fill="#000000"></path>
	<path d="M39.724 9.134c-1.329 0-2.549 0.457-3.499 1.214-0.95-0.757-2.17-1.214-3.499-1.214-1.165 0-2.244 0.353-3.133 0.95-1.42 0.953-2.352 2.531-2.352 4.316v7.102h3.975v-7.102c0-0.799 0.678-1.449 1.511-1.449s1.511 0.65 1.511 1.449v7.102h3.975v-7.102c0-0.799 0.678-1.449 1.511-1.449s1.511 0.65 1.511 1.449v7.102h3.974v-7.102c0-2.903-2.461-5.265-5.485-5.265z" fill="#000000"></path>
	<path d="M5.622 17.686h-1.884v-4.888h1.884c1.404 0 2.545 1.097 2.545 2.445 0 1.347-1.142 2.443-2.545 2.443zM11.899 13.573c-0.764-2.642-3.285-4.59-6.277-4.59h-5.859v12.52h5.859c1.487 0 2.854-0.485 3.952-1.293 1.558-1.145 2.568-2.942 2.568-4.966 0-0.579-0.089-1.138-0.243-1.671z" fill="#000000"></path>
	<path d="M18.048 18.714c0 1.244-1.055 2.256-2.351 2.256s-2.351-1.012-2.351-2.256v-0.298c0-1.244 1.055-2.256 2.351-2.256s2.351 1.012 2.351 2.256v0.298zM22.011 18.188c-0.102-2.606-1.916-4.797-4.395-5.557-0.606-0.185-1.249-0.287-1.918-0.287-1.426 0-2.739 0.461-3.798 1.228 0.154 0.533 0.243 1.091 0.243 1.671 0 2.024-1.010 3.821-2.568 4.966 0.697 2.626 3.174 4.576 6.123 4.576 1.383 0 2.66-0.432 3.702-1.159 0.595 0.517 1.438 0.851 2.624 1.022v-6.233c0-0.077-0.009-0.153-0.012-0.228z" fill="#000000"></path>
</svg>
