<?xml version="1.0" encoding="UTF-8" standalone="no"?>
<!-- Created with Inkscape (http://www.inkscape.org/) -->

<svg
   xmlns:dc="http://purl.org/dc/elements/1.1/"
   xmlns:cc="http://creativecommons.org/ns#"
   xmlns:rdf="http://www.w3.org/1999/02/22-rdf-syntax-ns#"
   xmlns:svg="http://www.w3.org/2000/svg"
   xmlns="http://www.w3.org/2000/svg"
   xmlns:inkscape="http://www.inkscape.org/namespaces/inkscape"
   version="1.1"
   width="1052.3625"
   height="744.09375"
   id="svg2"
   xml:space="preserve"><metadata
     id="metadata8"><rdf:RDF><cc:Work
         rdf:about=""><dc:format>image/svg+xml</dc:format><dc:type
           rdf:resource="http://purl.org/dc/dcmitype/StillImage" /></cc:Work></rdf:RDF></metadata><defs
     id="defs6"><clipPath
       id="clipPath16"><path
         d="m 0,595.275 841.89,0 L 841.89,0 0,0 0,595.275 z"
         inkscape:connector-curvature="0"
         id="path18" /></clipPath></defs><g
     transform="matrix(1.25,0,0,-1.25,0,744.09375)"
     id="g10"><g
       id="g12"><g
         clip-path="url(#clipPath16)"
         id="g14"><g
           transform="translate(557.498,67.0176)"
           id="g20"><path
             d="m 0,0 c -0.174,-0.031 -0.378,-0.061 -0.613,-0.086 -0.237,-0.025 -0.543,-0.037 -0.919,-0.037 -0.15,0 -0.32,0.004 -0.511,0.014 -0.191,0.009 -0.391,0.044 -0.596,0.103 -0.207,0.061 -0.408,0.152 -0.605,0.278 -0.197,0.126 -0.373,0.304 -0.529,0.534 -0.155,0.229 -0.282,0.52 -0.377,0.872 -0.096,0.351 -0.143,0.783 -0.143,1.292 0,0.534 0.055,0.985 0.166,1.353 0.11,0.368 0.256,0.671 0.435,0.91 0.179,0.24 0.382,0.424 0.61,0.556 0.227,0.133 0.457,0.229 0.689,0.288 0.233,0.06 0.46,0.096 0.682,0.109 0.221,0.012 0.412,0.019 0.572,0.019 0.192,0 0.38,-0.005 0.565,-0.014 0.185,-0.009 0.332,-0.023 0.439,-0.041 l 0,-0.437 -0.833,0 C -1.284,5.713 -1.604,5.688 -1.927,5.637 -2.249,5.587 -2.542,5.471 -2.805,5.288 -3.068,5.106 -3.281,4.833 -3.445,4.469 -3.609,4.104 -3.691,3.608 -3.691,2.98 c 0,-0.421 0.037,-0.777 0.111,-1.07 0.074,-0.292 0.176,-0.532 0.305,-0.721 0.129,-0.188 0.276,-0.335 0.443,-0.442 0.168,-0.106 0.346,-0.185 0.533,-0.235 0.189,-0.051 0.38,-0.08 0.574,-0.09 0.194,-0.01 0.377,-0.014 0.551,-0.014 L 0,0.408 0,0 z"
             inkscape:connector-curvature="0"
             id="path22"
             style="fill:#9c9ea0;fill-opacity:1;fill-rule:nonzero;stroke:none" /></g><g
           transform="translate(560.2832,67.293)"
           id="g24"><path
             d="M 0,0 C 0.16,0 0.326,0.024 0.496,0.074 0.667,0.125 0.82,0.226 0.958,0.376 1.096,0.526 1.209,0.738 1.299,1.012 1.388,1.284 1.433,1.644 1.433,2.09 1.433,2.535 1.388,2.895 1.299,3.167 1.209,3.44 1.096,3.652 0.958,3.803 0.82,3.953 0.667,4.054 0.496,4.104 0.326,4.154 0.16,4.18 0,4.18 -0.162,4.18 -0.329,4.154 -0.502,4.104 -0.676,4.054 -0.83,3.953 -0.968,3.803 -1.105,3.652 -1.219,3.44 -1.309,3.167 -1.397,2.895 -1.442,2.535 -1.442,2.09 c 0,-0.446 0.045,-0.806 0.133,-1.078 0.09,-0.274 0.204,-0.486 0.341,-0.636 C -0.83,0.226 -0.676,0.125 -0.502,0.074 -0.329,0.024 -0.162,0 0,0 m -0.02,-0.445 c -0.107,0 -0.23,0.007 -0.371,0.023 -0.14,0.016 -0.285,0.052 -0.435,0.108 -0.149,0.056 -0.297,0.138 -0.444,0.246 -0.146,0.106 -0.276,0.252 -0.39,0.437 -0.113,0.186 -0.204,0.415 -0.274,0.689 -0.068,0.272 -0.102,0.604 -0.102,0.994 0,0.389 0.036,0.722 0.107,0.999 0.072,0.276 0.166,0.51 0.283,0.702 0.117,0.191 0.248,0.344 0.394,0.457 0.147,0.112 0.296,0.201 0.449,0.264 0.153,0.063 0.3,0.103 0.444,0.122 0.142,0.019 0.268,0.029 0.377,0.029 0.107,0 0.23,-0.008 0.371,-0.023 C 0.529,4.585 0.674,4.549 0.824,4.492 0.973,4.436 1.119,4.354 1.264,4.248 1.406,4.141 1.537,3.994 1.653,3.809 1.77,3.624 1.862,3.395 1.932,3.121 2,2.848 2.034,2.517 2.034,2.127 2.034,1.737 1.998,1.404 1.927,1.128 1.854,0.852 1.761,0.617 1.645,0.426 1.527,0.234 1.395,0.082 1.245,-0.031 1.096,-0.145 0.945,-0.232 0.793,-0.295 0.641,-0.357 0.494,-0.398 0.354,-0.418 0.213,-0.437 0.089,-0.445 -0.02,-0.445"
             inkscape:connector-curvature="0"
             id="path26"
             style="fill:#9c9ea0;fill-opacity:1;fill-rule:nonzero;stroke:none" /></g><g
           transform="translate(564.4473,67.3555)"
           id="g28"><path
             d="m 0,0 c 0.186,0 0.387,0.017 0.605,0.051 0.219,0.035 0.423,0.12 0.615,0.255 0.191,0.134 0.35,0.339 0.479,0.612 0.129,0.273 0.194,0.645 0.194,1.117 0,0.42 -0.045,0.76 -0.135,1.018 C 1.668,3.311 1.553,3.511 1.412,3.655 1.271,3.8 1.117,3.897 0.946,3.947 0.775,3.998 0.613,4.023 0.457,4.023 0.164,4.023 -0.054,4.006 -0.197,3.971 -0.34,3.937 -0.454,3.903 -0.537,3.872 L -0.537,0 0,0 z m -0.537,-2.344 -0.57,0 0,6.805 0.507,0 0.027,-0.248 C -0.441,4.282 -0.28,4.35 -0.09,4.412 0.102,4.476 0.338,4.508 0.619,4.508 0.78,4.508 0.971,4.483 1.188,4.437 1.406,4.39 1.612,4.284 1.807,4.121 2.001,3.957 2.165,3.717 2.3,3.398 2.434,3.082 2.502,2.652 2.502,2.111 2.502,1.722 2.459,1.389 2.376,1.111 2.292,0.836 2.184,0.602 2.049,0.409 1.914,0.218 1.762,0.064 1.592,-0.048 1.421,-0.161 1.25,-0.248 1.076,-0.308 0.902,-0.367 0.736,-0.406 0.578,-0.426 0.42,-0.444 0.284,-0.453 0.171,-0.453 c -0.144,0 -0.276,0.004 -0.4,0.014 -0.123,0.009 -0.225,0.02 -0.308,0.033 l 0,-1.938 z"
             inkscape:connector-curvature="0"
             id="path30"
             style="fill:#9c9ea0;fill-opacity:1;fill-rule:nonzero;stroke:none" /></g><g
           transform="translate(569.3828,65.0117)"
           id="g32"><path
             d="m 0,0 -0.592,0 0.682,1.932 -0.234,0 -1.828,4.873 0.655,0 1.532,-4.373 0.045,0 1.487,4.373 0.591,0 L 0,0 z"
             inkscape:connector-curvature="0"
             id="path34"
             style="fill:#9c9ea0;fill-opacity:1;fill-rule:nonzero;stroke:none" /></g><g
           transform="translate(573.0117,66.9414)"
           id="g36"><path
             d="m 0,0 -0.57,0 0,4.873 0.507,0 0.036,-0.434 c 0.131,0.12 0.302,0.239 0.515,0.358 0.212,0.119 0.494,0.18 0.847,0.18 0.185,0 0.349,-0.008 0.493,-0.024 l 0,-0.5 -0.601,0 C 1.054,4.453 0.904,4.441 0.779,4.42 0.653,4.397 0.545,4.371 0.452,4.34 0.359,4.308 0.277,4.269 0.205,4.222 0.134,4.174 0.065,4.129 0,4.085 L 0,0 z"
             inkscape:connector-curvature="0"
             id="path38"
             style="fill:#9c9ea0;fill-opacity:1;fill-rule:nonzero;stroke:none" /></g><path
           d="m 576.047,66.941 -0.586,0 0,4.875 0.586,0 0,-4.875 z m 0.062,6.055 -0.711,0 0,0.648 0.711,0 0,-0.648 z"
           inkscape:connector-curvature="0"
           id="path40"
           style="fill:#9c9ea0;fill-opacity:1;fill-rule:nonzero;stroke:none" /><g
           transform="translate(578.9238,69.0508)"
           id="g42"><path
             d="M 0,0 C 0.139,0 0.277,0.014 0.418,0.042 0.559,0.07 0.684,0.129 0.795,0.217 0.905,0.305 0.996,0.427 1.068,0.581 1.141,0.735 1.176,0.941 1.176,1.2 1.176,1.452 1.141,1.658 1.068,1.819 0.996,1.98 0.905,2.106 0.795,2.197 0.684,2.289 0.559,2.351 0.418,2.382 0.277,2.414 0.139,2.43 0,2.43 -0.137,2.43 -0.276,2.414 -0.417,2.382 -0.558,2.351 -0.684,2.289 -0.794,2.197 -0.904,2.106 -0.996,1.98 -1.067,1.819 -1.14,1.658 -1.176,1.452 -1.176,1.2 -1.176,0.941 -1.14,0.735 -1.067,0.581 -0.996,0.427 -0.904,0.305 -0.794,0.217 -0.684,0.129 -0.558,0.07 -0.417,0.042 -0.276,0.014 -0.137,0 0,0 m -0.887,-1.906 c -0.054,-0.039 -0.108,-0.081 -0.162,-0.129 -0.054,-0.047 -0.104,-0.104 -0.152,-0.17 -0.048,-0.066 -0.087,-0.145 -0.117,-0.233 -0.03,-0.089 -0.045,-0.197 -0.045,-0.323 0,-0.183 0.038,-0.337 0.113,-0.46 0.074,-0.123 0.174,-0.221 0.3,-0.295 0.126,-0.072 0.272,-0.125 0.44,-0.156 0.167,-0.031 0.344,-0.047 0.53,-0.047 0.172,0 0.352,0.014 0.537,0.042 0.185,0.029 0.356,0.083 0.511,0.161 0.157,0.08 0.284,0.188 0.382,0.324 0.099,0.135 0.148,0.311 0.148,0.526 0,0.189 -0.035,0.336 -0.103,0.437 -0.069,0.101 -0.161,0.175 -0.278,0.223 -0.117,0.047 -0.25,0.075 -0.4,0.085 -0.149,0.009 -0.301,0.015 -0.458,0.015 l -1.246,0 z m 1.273,0.515 c 0.178,0 0.374,-0.006 0.583,-0.019 C 1.178,-1.423 1.37,-1.465 1.547,-1.537 1.723,-1.61 1.869,-1.727 1.986,-1.887 2.103,-2.048 2.16,-2.276 2.16,-2.572 2.16,-2.906 2.094,-3.176 1.959,-3.381 1.824,-3.585 1.651,-3.744 1.439,-3.857 1.228,-3.971 0.988,-4.047 0.723,-4.084 0.457,-4.122 0.193,-4.141 -0.07,-4.141 c -0.239,0 -0.47,0.017 -0.694,0.052 -0.224,0.034 -0.423,0.103 -0.595,0.203 -0.174,0.101 -0.313,0.24 -0.417,0.416 -0.105,0.177 -0.158,0.407 -0.158,0.691 0,0.157 0.028,0.301 0.081,0.434 0.054,0.132 0.123,0.252 0.206,0.359 0.083,0.107 0.178,0.202 0.286,0.284 0.107,0.082 0.215,0.147 0.321,0.198 -0.083,0.063 -0.15,0.146 -0.204,0.249 -0.053,0.103 -0.08,0.227 -0.08,0.37 0,0.132 0.041,0.254 0.121,0.366 0.08,0.113 0.176,0.195 0.289,0.245 -0.107,0.049 -0.209,0.118 -0.305,0.203 -0.095,0.085 -0.182,0.186 -0.26,0.306 -0.078,0.12 -0.139,0.259 -0.183,0.415 -0.045,0.159 -0.068,0.34 -0.068,0.549 0,0.377 0.069,0.676 0.207,0.897 0.136,0.22 0.299,0.385 0.488,0.496 0.187,0.109 0.379,0.18 0.573,0.212 C -0.268,2.836 -0.113,2.852 0,2.852 0.113,2.852 0.26,2.838 0.438,2.813 0.618,2.788 0.801,2.726 0.985,2.625 1.081,2.65 1.194,2.678 1.326,2.709 1.457,2.741 1.594,2.771 1.734,2.799 1.874,2.828 2.01,2.854 2.142,2.875 2.273,2.898 2.384,2.916 2.473,2.93 l 0,-0.576 -1.128,0 C 1.464,2.228 1.56,2.072 1.631,1.891 1.703,1.707 1.738,1.478 1.738,1.2 1.738,0.93 1.703,0.702 1.631,0.52 1.56,0.337 1.465,0.186 1.349,0.066 1.232,-0.054 1.103,-0.146 0.959,-0.208 0.815,-0.271 0.672,-0.316 0.529,-0.346 0.386,-0.373 0.251,-0.391 0.126,-0.397 0,-0.404 -0.102,-0.406 -0.179,-0.406 l -0.52,0 0,-0.985 1.085,0 z"
             inkscape:connector-curvature="0"
             id="path44"
             style="fill:#9c9ea0;fill-opacity:1;fill-rule:nonzero;stroke:none" /></g><g
           transform="translate(585.5283,66.9414)"
           id="g46"><path
             d="m 0,0 -0.57,0 0,3.384 c 0,0.27 -0.034,0.477 -0.103,0.622 -0.069,0.144 -0.157,0.252 -0.265,0.32 -0.108,0.07 -0.225,0.111 -0.354,0.123 -0.129,0.013 -0.256,0.02 -0.381,0.02 -0.258,0 -0.504,-0.023 -0.74,-0.067 C -2.649,4.358 -2.824,4.311 -2.938,4.261 l 0,-4.261 -0.57,0 0,6.836 0.57,0 0.003,-2.197 c 0.191,0.088 0.409,0.164 0.653,0.23 0.245,0.067 0.51,0.1 0.797,0.1 0.136,0 0.291,-0.01 0.461,-0.03 0.17,-0.018 0.331,-0.076 0.482,-0.173 C -0.39,4.668 -0.261,4.518 -0.157,4.313 -0.052,4.108 0,3.821 0,3.45 L 0,0 z"
             inkscape:connector-curvature="0"
             id="path48"
             style="fill:#9c9ea0;fill-opacity:1;fill-rule:nonzero;stroke:none" /></g><g
           transform="translate(589.1416,66.9814)"
           id="g50"><path
             d="m 0,0 c -0.036,-0.013 -0.091,-0.024 -0.165,-0.034 -0.075,-0.009 -0.158,-0.018 -0.251,-0.028 -0.093,-0.009 -0.187,-0.017 -0.282,-0.024 -0.096,-0.006 -0.185,-0.009 -0.268,-0.009 -0.168,0 -0.316,0.016 -0.448,0.047 -0.131,0.031 -0.243,0.098 -0.335,0.197 -0.093,0.102 -0.163,0.245 -0.211,0.43 -0.047,0.186 -0.071,0.432 -0.071,0.74 l 0,3.094 -0.861,0 0,0.422 0.861,0 0,1.072 0.57,0.264 0,-1.336 1.461,0 0,-0.422 -1.461,0 0,-3.044 c 0,-0.214 0.012,-0.385 0.036,-0.514 C -1.401,0.727 -1.359,0.628 -1.3,0.559 -1.239,0.489 -1.157,0.444 -1.054,0.422 -0.948,0.4 -0.815,0.39 -0.654,0.39 L 0,0.39 0,0 z"
             inkscape:connector-curvature="0"
             id="path52"
             style="fill:#9c9ea0;fill-opacity:1;fill-rule:nonzero;stroke:none" /></g><g
           transform="translate(596.7227,67.8223)"
           id="g54"><path
             d="m 0,0 c -0.161,-0.05 -0.33,-0.084 -0.506,-0.104 -0.177,-0.018 -0.369,-0.027 -0.578,-0.027 -0.753,0 -1.275,0.32 -1.569,0.961 -0.119,0.275 -0.179,0.647 -0.179,1.111 0,0.332 0.035,0.619 0.107,0.858 0.137,0.451 0.377,0.778 0.717,0.979 0.342,0.201 0.75,0.302 1.229,0.302 0.232,0 0.471,-0.016 0.716,-0.047 l 0,-0.687 -0.51,0 c -0.15,0 -0.308,-0.014 -0.475,-0.038 C -1.389,3.251 -1.64,3.057 -1.801,2.724 -1.885,2.541 -1.926,2.29 -1.926,1.971 c 0,-0.334 0.038,-0.588 0.116,-0.764 0.138,-0.332 0.355,-0.521 0.654,-0.564 0.15,-0.022 0.287,-0.032 0.413,-0.032 L 0,0.611 0,0 z m 2.48,1.959 c 0,1.219 -0.349,2.184 -1.047,2.894 -0.663,0.671 -1.531,1.008 -2.605,1.008 -1.074,0 -1.943,-0.337 -2.605,-1.008 -0.699,-0.71 -1.047,-1.675 -1.047,-2.894 0,-1.22 0.348,-2.182 1.047,-2.885 0.662,-0.678 1.531,-1.017 2.605,-1.017 1.074,0 1.942,0.339 2.605,1.017 0.698,0.703 1.047,1.665 1.047,2.885 m 0.672,0 c 0,-1.434 -0.415,-2.555 -1.245,-3.365 -0.782,-0.754 -1.808,-1.131 -3.079,-1.131 -1.271,0 -2.299,0.377 -3.08,1.131 -0.83,0.81 -1.244,1.931 -1.244,3.365 0,1.432 0.414,2.554 1.244,3.364 0.781,0.755 1.809,1.132 3.08,1.132 1.271,0 2.297,-0.377 3.079,-1.132 0.83,-0.81 1.245,-1.932 1.245,-3.364"
             inkscape:connector-curvature="0"
             id="path56"
             style="fill:#9c9ea0;fill-opacity:1;fill-rule:nonzero;stroke:none" /></g><g
           transform="translate(604.0205,67.4258)"
           id="g58"><path
             d="M 0,0 C 0.179,0 0.373,0.006 0.582,0.019 0.791,0.031 1.001,0.064 1.213,0.117 1.425,0.171 1.63,0.254 1.826,0.367 2.023,0.48 2.196,0.637 2.346,0.838 2.495,1.039 2.615,1.293 2.708,1.602 2.8,1.909 2.847,2.283 2.847,2.723 2.847,3.149 2.799,3.511 2.704,3.807 2.608,4.102 2.481,4.345 2.323,4.536 2.165,4.728 1.983,4.875 1.776,4.979 1.571,5.083 1.359,5.158 1.142,5.205 0.924,5.252 0.709,5.28 0.497,5.29 0.285,5.299 0.09,5.305 -0.089,5.305 l -0.627,0 L -0.716,0 0,0 z m -1.302,-0.484 0,6.273 1.452,0 C 0.306,5.789 0.495,5.782 0.72,5.77 0.943,5.757 1.178,5.721 1.423,5.661 1.668,5.602 1.911,5.509 2.153,5.383 2.396,5.257 2.612,5.082 2.803,4.859 2.994,4.636 3.149,4.354 3.269,4.01 3.389,3.668 3.448,3.251 3.448,2.76 3.448,2.226 3.387,1.774 3.265,1.406 3.142,1.039 2.983,0.733 2.79,0.491 2.595,0.249 2.377,0.064 2.136,-0.064 1.894,-0.193 1.649,-0.29 1.405,-0.353 1.159,-0.416 0.925,-0.453 0.701,-0.466 0.478,-0.479 0.29,-0.484 0.142,-0.484 l -1.444,0 z"
             inkscape:connector-curvature="0"
             id="path60"
             style="fill:#9c9ea0;fill-opacity:1;fill-rule:nonzero;stroke:none" /></g><g
           transform="translate(610.9336,69.3496)"
           id="g62"><path
             d="m 0,0 c -0.215,-0.057 -0.448,-0.124 -0.699,-0.203 -0.251,-0.078 -0.49,-0.161 -0.717,-0.25 -0.24,-0.1 -0.418,-0.209 -0.534,-0.324 -0.116,-0.118 -0.175,-0.295 -0.175,-0.534 0,-0.164 0.023,-0.293 0.072,-0.391 0.047,-0.097 0.115,-0.173 0.201,-0.226 0.087,-0.053 0.187,-0.09 0.301,-0.109 0.113,-0.019 0.238,-0.027 0.376,-0.027 0.257,0 0.487,0.026 0.691,0.08 0.203,0.052 0.365,0.101 0.484,0.145 L 0,0 z M 1.271,-2.389 C 1.234,-2.4 1.189,-2.41 1.136,-2.416 1.082,-2.422 1.025,-2.43 0.966,-2.439 0.906,-2.449 0.848,-2.455 0.791,-2.459 0.734,-2.462 0.686,-2.463 0.643,-2.463 c -0.143,0 -0.266,0.017 -0.37,0.051 -0.104,0.035 -0.177,0.118 -0.218,0.25 -0.174,-0.088 -0.384,-0.168 -0.632,-0.24 -0.248,-0.073 -0.522,-0.108 -0.82,-0.108 -0.18,0 -0.352,0.017 -0.516,0.051 -0.164,0.035 -0.308,0.096 -0.431,0.185 -0.122,0.087 -0.219,0.207 -0.291,0.358 -0.072,0.15 -0.107,0.346 -0.107,0.584 0,0.283 0.073,0.506 0.22,0.67 0.145,0.163 0.33,0.298 0.55,0.404 0.12,0.057 0.267,0.118 0.44,0.185 0.173,0.065 0.352,0.128 0.538,0.188 0.184,0.06 0.365,0.116 0.541,0.17 C -0.276,0.338 -0.125,0.384 0,0.422 L 0,1.26 C 0,1.442 -0.028,1.586 -0.085,1.689 -0.143,1.793 -0.219,1.871 -0.313,1.925 -0.409,1.979 -0.521,2.013 -0.65,2.029 -0.778,2.045 -0.914,2.053 -1.058,2.053 l -1.415,0 0,0.346 c 0.256,0.05 0.53,0.091 0.82,0.122 0.29,0.032 0.559,0.047 0.811,0.047 0.154,0 0.317,-0.014 0.484,-0.043 C -0.191,2.497 -0.039,2.438 0.098,2.347 0.234,2.256 0.347,2.123 0.434,1.951 0.52,1.777 0.563,1.547 0.563,1.258 l 0,-3.24 0.708,0 0,-0.407 z"
             inkscape:connector-curvature="0"
             id="path64"
             style="fill:#9c9ea0;fill-opacity:1;fill-rule:nonzero;stroke:none" /></g><g
           transform="translate(616.3555,66.9385)"
           id="g66"><path
             d="M 0,0 -0.511,0 -0.547,0.255 C -0.618,0.224 -0.709,0.187 -0.819,0.146 -0.93,0.104 -1.052,0.069 -1.186,0.038 -1.32,0.006 -1.46,-0.021 -1.605,-0.043 c -0.147,-0.021 -0.289,-0.032 -0.426,-0.032 -0.166,0 -0.338,0.009 -0.514,0.027 -0.176,0.02 -0.336,0.078 -0.482,0.175 -0.147,0.098 -0.266,0.249 -0.358,0.453 -0.093,0.204 -0.138,0.489 -0.138,0.854 l 0,3.444 0.585,0 0,-3.404 c 0,-0.251 0.029,-0.448 0.085,-0.589 0.057,-0.142 0.137,-0.248 0.242,-0.321 0.103,-0.072 0.226,-0.116 0.366,-0.131 0.14,-0.016 0.29,-0.024 0.451,-0.024 0.286,0 0.531,0.019 0.737,0.057 0.205,0.037 0.368,0.078 0.487,0.122 l 0,4.29 0.57,0 L 0,0 z"
             inkscape:connector-curvature="0"
             id="path68"
             style="fill:#9c9ea0;fill-opacity:1;fill-rule:nonzero;stroke:none" /></g><g
           transform="translate(623.5449,66.9414)"
           id="g70"><path
             d="m 0,0 -0.57,0 0,3.433 c 0,0.251 -0.032,0.448 -0.094,0.588 -0.063,0.142 -0.145,0.245 -0.242,0.307 -0.1,0.063 -0.209,0.101 -0.328,0.113 -0.12,0.013 -0.238,0.02 -0.351,0.02 -0.294,0 -0.535,-0.025 -0.724,-0.076 -0.188,-0.05 -0.342,-0.101 -0.462,-0.151 0.072,-0.182 0.107,-0.418 0.107,-0.707 l 0,-3.527 -0.57,0 0,3.395 c 0,0.245 -0.03,0.438 -0.089,0.58 -0.06,0.141 -0.138,0.248 -0.234,0.32 C -3.652,4.367 -3.76,4.413 -3.879,4.432 -3.998,4.451 -4.117,4.461 -4.237,4.461 -4.523,4.461 -4.744,4.443 -4.9,4.408 -5.055,4.374 -5.192,4.334 -5.313,4.291 l 0,-4.291 -0.57,0 0,4.875 0.466,0 0.054,-0.254 c 0.143,0.068 0.328,0.143 0.555,0.222 0.227,0.078 0.478,0.118 0.752,0.118 0.083,0 0.176,-0.006 0.278,-0.015 0.101,-0.008 0.204,-0.028 0.309,-0.056 0.104,-0.029 0.204,-0.073 0.299,-0.132 0.096,-0.06 0.18,-0.14 0.252,-0.24 0.19,0.1 0.416,0.199 0.676,0.296 0.26,0.098 0.541,0.147 0.846,0.147 0.13,0 0.277,-0.014 0.439,-0.038 0.16,-0.026 0.312,-0.087 0.456,-0.185 C -0.357,4.642 -0.238,4.495 -0.143,4.301 -0.047,4.105 0,3.835 0,3.489 L 0,0 z"
             inkscape:connector-curvature="0"
             id="path72"
             style="fill:#9c9ea0;fill-opacity:1;fill-rule:nonzero;stroke:none" /></g><g
           transform="translate(629.7354,66.9824)"
           id="g74"><path
             d="m 0,0 c -0.293,-0.069 -0.685,-0.104 -1.174,-0.104 -0.108,0 -0.233,0.008 -0.376,0.024 -0.144,0.016 -0.291,0.053 -0.439,0.112 -0.15,0.06 -0.296,0.144 -0.44,0.25 C -2.572,0.389 -2.7,0.535 -2.813,0.72 -2.928,0.905 -3.019,1.131 -3.087,1.398 -3.156,1.664 -3.19,1.986 -3.19,2.363 c 0,0.408 0.043,0.753 0.129,1.035 0.087,0.284 0.201,0.518 0.341,0.707 0.141,0.188 0.299,0.336 0.475,0.443 0.177,0.106 0.354,0.184 0.533,0.235 0.18,0.05 0.353,0.081 0.52,0.094 0.168,0.013 0.31,0.019 0.43,0.019 0.126,0 0.251,-0.002 0.376,-0.007 0.126,-0.006 0.234,-0.014 0.323,-0.024 l 0,-0.445 -0.555,0 C -0.846,4.42 -1.075,4.398 -1.309,4.358 -1.542,4.317 -1.753,4.229 -1.944,4.09 -2.136,3.951 -2.293,3.748 -2.415,3.478 -2.538,3.207 -2.599,2.847 -2.599,2.395 c 0,-0.465 0.055,-0.831 0.166,-1.098 0.11,-0.267 0.25,-0.468 0.421,-0.603 0.17,-0.134 0.357,-0.219 0.56,-0.255 0.203,-0.034 0.4,-0.05 0.592,-0.05 L 0,0.389 0,0 z"
             inkscape:connector-curvature="0"
             id="path76"
             style="fill:#9c9ea0;fill-opacity:1;fill-rule:nonzero;stroke:none" /></g><g
           transform="translate(632.4336,67.293)"
           id="g78"><path
             d="m 0,0 c 0.161,0 0.327,0.024 0.497,0.074 0.171,0.051 0.324,0.152 0.462,0.302 0.137,0.15 0.25,0.362 0.34,0.636 0.09,0.272 0.135,0.632 0.135,1.078 0,0.445 -0.045,0.805 -0.135,1.077 C 1.209,3.44 1.096,3.652 0.959,3.803 0.821,3.953 0.668,4.054 0.497,4.104 0.327,4.154 0.161,4.18 0,4.18 -0.161,4.18 -0.328,4.154 -0.502,4.104 -0.675,4.054 -0.83,3.953 -0.967,3.803 -1.104,3.652 -1.218,3.44 -1.308,3.167 -1.397,2.895 -1.441,2.535 -1.441,2.09 c 0,-0.446 0.044,-0.806 0.133,-1.078 0.09,-0.274 0.204,-0.486 0.341,-0.636 C -0.83,0.226 -0.675,0.125 -0.502,0.074 -0.328,0.024 -0.161,0 0,0 m -0.019,-0.445 c -0.107,0 -0.231,0.007 -0.372,0.023 -0.14,0.016 -0.285,0.052 -0.434,0.108 -0.15,0.056 -0.298,0.138 -0.445,0.246 -0.146,0.106 -0.276,0.252 -0.389,0.437 -0.113,0.186 -0.204,0.415 -0.274,0.689 -0.069,0.272 -0.102,0.604 -0.102,0.994 0,0.389 0.035,0.722 0.107,0.999 0.072,0.276 0.166,0.51 0.282,0.702 0.117,0.191 0.249,0.344 0.395,0.457 0.147,0.112 0.296,0.201 0.448,0.264 0.153,0.063 0.301,0.103 0.444,0.122 0.143,0.019 0.269,0.029 0.377,0.029 0.107,0 0.231,-0.008 0.372,-0.023 C 0.529,4.585 0.675,4.549 0.824,4.492 0.974,4.436 1.12,4.354 1.264,4.248 1.407,4.141 1.537,3.994 1.653,3.809 1.77,3.624 1.863,3.395 1.932,3.121 2,2.848 2.035,2.517 2.035,2.127 2.035,1.737 1.999,1.404 1.927,1.128 1.855,0.852 1.762,0.617 1.645,0.426 1.528,0.234 1.395,0.082 1.246,-0.031 1.096,-0.145 0.945,-0.232 0.793,-0.295 0.641,-0.357 0.494,-0.398 0.354,-0.418 0.213,-0.437 0.089,-0.445 -0.019,-0.445"
             inkscape:connector-curvature="0"
             id="path80"
             style="fill:#9c9ea0;fill-opacity:1;fill-rule:nonzero;stroke:none" /></g><g
           transform="translate(641.373,66.9414)"
           id="g82"><path
             d="m 0,0 -0.57,0 0,3.433 c 0,0.251 -0.033,0.448 -0.095,0.588 -0.064,0.142 -0.144,0.245 -0.243,0.307 -0.099,0.063 -0.208,0.101 -0.328,0.113 -0.119,0.013 -0.237,0.02 -0.35,0.02 C -1.88,4.461 -2.121,4.436 -2.31,4.385 -2.498,4.335 -2.652,4.284 -2.771,4.234 -2.7,4.052 -2.664,3.816 -2.664,3.527 l 0,-3.527 -0.57,0 0,3.395 c 0,0.245 -0.031,0.438 -0.09,0.58 -0.061,0.141 -0.138,0.248 -0.234,0.32 C -3.652,4.367 -3.761,4.413 -3.88,4.432 -3.999,4.451 -4.119,4.461 -4.238,4.461 -4.525,4.461 -4.746,4.443 -4.9,4.408 -5.057,4.374 -5.193,4.334 -5.313,4.291 l 0,-4.291 -0.57,0 0,4.875 0.465,0 0.054,-0.254 c 0.143,0.068 0.329,0.143 0.555,0.222 0.227,0.078 0.478,0.118 0.752,0.118 0.084,0 0.176,-0.006 0.278,-0.015 0.101,-0.008 0.205,-0.028 0.308,-0.056 0.106,-0.029 0.205,-0.073 0.301,-0.132 0.096,-0.06 0.179,-0.14 0.25,-0.24 0.191,0.1 0.417,0.199 0.676,0.296 0.26,0.098 0.543,0.147 0.847,0.147 0.131,0 0.278,-0.014 0.438,-0.038 C -0.797,4.897 -0.646,4.836 -0.502,4.738 -0.358,4.642 -0.239,4.495 -0.144,4.301 -0.049,4.105 0,3.835 0,3.489 L 0,0 z"
             inkscape:connector-curvature="0"
             id="path84"
             style="fill:#9c9ea0;fill-opacity:1;fill-rule:nonzero;stroke:none" /></g><g
           transform="translate(648.5117,66.9414)"
           id="g86"><path
             d="m 0,0 -0.57,0 0,3.433 c 0,0.251 -0.032,0.448 -0.094,0.588 -0.063,0.142 -0.145,0.245 -0.242,0.307 -0.1,0.063 -0.209,0.101 -0.328,0.113 -0.12,0.013 -0.238,0.02 -0.351,0.02 -0.294,0 -0.535,-0.025 -0.724,-0.076 -0.188,-0.05 -0.342,-0.101 -0.462,-0.151 0.072,-0.182 0.107,-0.418 0.107,-0.707 l 0,-3.527 -0.57,0 0,3.395 c 0,0.245 -0.03,0.438 -0.089,0.58 -0.06,0.141 -0.138,0.248 -0.234,0.32 C -3.652,4.367 -3.76,4.413 -3.879,4.432 -3.998,4.451 -4.117,4.461 -4.237,4.461 -4.523,4.461 -4.744,4.443 -4.9,4.408 -5.055,4.374 -5.192,4.334 -5.313,4.291 l 0,-4.291 -0.57,0 0,4.875 0.466,0 0.054,-0.254 c 0.143,0.068 0.328,0.143 0.555,0.222 0.227,0.078 0.478,0.118 0.752,0.118 0.083,0 0.176,-0.006 0.278,-0.015 0.101,-0.008 0.204,-0.028 0.309,-0.056 0.104,-0.029 0.204,-0.073 0.299,-0.132 0.096,-0.06 0.18,-0.14 0.252,-0.24 0.19,0.1 0.416,0.199 0.676,0.296 0.26,0.098 0.541,0.147 0.846,0.147 0.13,0 0.277,-0.014 0.439,-0.038 0.16,-0.026 0.312,-0.087 0.456,-0.185 C -0.357,4.642 -0.238,4.495 -0.143,4.301 -0.047,4.105 0,3.835 0,3.489 L 0,0 z"
             inkscape:connector-curvature="0"
             id="path88"
             style="fill:#9c9ea0;fill-opacity:1;fill-rule:nonzero;stroke:none" /></g><g
           transform="translate(653.2461,66.9385)"
           id="g90"><path
             d="M 0,0 -0.511,0 -0.547,0.255 C -0.618,0.224 -0.709,0.187 -0.819,0.146 -0.93,0.104 -1.052,0.069 -1.186,0.038 -1.32,0.006 -1.46,-0.021 -1.605,-0.043 c -0.147,-0.021 -0.289,-0.032 -0.426,-0.032 -0.166,0 -0.338,0.009 -0.514,0.027 -0.176,0.02 -0.336,0.078 -0.482,0.175 -0.147,0.098 -0.266,0.249 -0.358,0.453 -0.093,0.204 -0.138,0.489 -0.138,0.854 l 0,3.444 0.585,0 0,-3.404 c 0,-0.251 0.029,-0.448 0.085,-0.589 0.057,-0.142 0.137,-0.248 0.242,-0.321 0.103,-0.072 0.226,-0.116 0.366,-0.131 0.14,-0.016 0.29,-0.024 0.451,-0.024 0.286,0 0.531,0.019 0.737,0.057 0.205,0.037 0.368,0.078 0.487,0.122 l 0,4.29 0.57,0 L 0,0 z"
             inkscape:connector-curvature="0"
             id="path92"
             style="fill:#9c9ea0;fill-opacity:1;fill-rule:nonzero;stroke:none" /></g><g
           transform="translate(658.084,66.9414)"
           id="g94"><path
             d="m 0,0 -0.586,0 0,3.402 c 0,0.252 -0.027,0.449 -0.085,0.59 -0.057,0.142 -0.138,0.246 -0.241,0.317 -0.106,0.068 -0.227,0.112 -0.363,0.13 -0.138,0.02 -0.288,0.03 -0.449,0.03 -0.287,0 -0.534,-0.02 -0.744,-0.057 C -2.677,4.374 -2.841,4.333 -2.961,4.289 l 0,-4.289 -0.57,0 0,4.875 0.515,0 0.029,-0.255 c 0.071,0.032 0.165,0.067 0.278,0.105 0.113,0.038 0.236,0.074 0.367,0.109 0.133,0.035 0.272,0.062 0.418,0.086 0.147,0.021 0.288,0.033 0.426,0.033 0.168,0 0.34,-0.01 0.516,-0.029 C -0.806,4.905 -0.645,4.848 -0.498,4.75 -0.352,4.652 -0.231,4.501 -0.139,4.297 -0.046,4.093 0,3.808 0,3.443 L 0,0 z"
             inkscape:connector-curvature="0"
             id="path96"
             style="fill:#9c9ea0;fill-opacity:1;fill-rule:nonzero;stroke:none" /></g><path
           d="m 659.915,66.941 -0.586,0 0,4.875 0.586,0 0,-4.875 z m 0.063,6.055 -0.711,0 0,0.648 0.711,0 0,-0.648 z"
           inkscape:connector-curvature="0"
           id="path98"
           style="fill:#9c9ea0;fill-opacity:1;fill-rule:nonzero;stroke:none" /><g
           transform="translate(664.1357,66.9824)"
           id="g100"><path
             d="m 0,0 c -0.293,-0.069 -0.685,-0.104 -1.174,-0.104 -0.108,0 -0.233,0.008 -0.376,0.024 -0.144,0.016 -0.291,0.053 -0.439,0.112 -0.15,0.06 -0.296,0.144 -0.44,0.25 C -2.572,0.389 -2.7,0.535 -2.813,0.72 -2.928,0.905 -3.019,1.131 -3.087,1.398 -3.156,1.664 -3.19,1.986 -3.19,2.363 c 0,0.408 0.043,0.753 0.129,1.035 0.087,0.284 0.201,0.518 0.341,0.707 0.141,0.188 0.299,0.336 0.475,0.443 0.177,0.106 0.354,0.184 0.533,0.235 0.18,0.05 0.353,0.081 0.52,0.094 0.168,0.013 0.31,0.019 0.43,0.019 0.126,0 0.251,-0.002 0.376,-0.007 0.126,-0.006 0.234,-0.014 0.323,-0.024 l 0,-0.445 -0.555,0 C -0.846,4.42 -1.075,4.398 -1.309,4.358 -1.542,4.317 -1.753,4.229 -1.944,4.09 -2.136,3.951 -2.293,3.748 -2.415,3.478 -2.538,3.207 -2.599,2.847 -2.599,2.395 c 0,-0.465 0.055,-0.831 0.166,-1.098 0.11,-0.267 0.25,-0.468 0.421,-0.603 0.17,-0.134 0.357,-0.219 0.56,-0.255 0.203,-0.034 0.4,-0.05 0.592,-0.05 L 0,0.389 0,0 z"
             inkscape:connector-curvature="0"
             id="path102"
             style="fill:#9c9ea0;fill-opacity:1;fill-rule:nonzero;stroke:none" /></g><g
           transform="translate(667.4697,69.3496)"
           id="g104"><path
             d="m 0,0 c -0.216,-0.057 -0.448,-0.124 -0.699,-0.203 -0.251,-0.078 -0.49,-0.161 -0.718,-0.25 -0.238,-0.1 -0.416,-0.209 -0.533,-0.324 -0.117,-0.118 -0.175,-0.295 -0.175,-0.534 0,-0.164 0.024,-0.293 0.071,-0.391 0.049,-0.097 0.116,-0.173 0.202,-0.226 0.087,-0.053 0.187,-0.09 0.3,-0.109 0.114,-0.019 0.24,-0.027 0.377,-0.027 0.258,0 0.487,0.026 0.691,0.08 0.203,0.052 0.364,0.101 0.484,0.145 L 0,0 z M 1.271,-2.389 C 1.234,-2.4 1.189,-2.41 1.136,-2.416 1.082,-2.422 1.025,-2.43 0.966,-2.439 0.906,-2.449 0.848,-2.455 0.791,-2.459 0.734,-2.462 0.685,-2.463 0.644,-2.463 c -0.144,0 -0.267,0.017 -0.372,0.051 -0.103,0.035 -0.175,0.118 -0.217,0.25 -0.173,-0.088 -0.384,-0.168 -0.632,-0.24 -0.248,-0.073 -0.522,-0.108 -0.82,-0.108 -0.18,0 -0.352,0.017 -0.516,0.051 -0.164,0.035 -0.308,0.096 -0.43,0.185 -0.123,0.087 -0.22,0.207 -0.292,0.358 -0.071,0.15 -0.107,0.346 -0.107,0.584 0,0.283 0.073,0.506 0.22,0.67 0.146,0.163 0.33,0.298 0.55,0.404 0.119,0.057 0.266,0.118 0.44,0.185 0.173,0.065 0.352,0.128 0.537,0.188 0.185,0.06 0.366,0.116 0.543,0.17 C -0.276,0.338 -0.126,0.384 0,0.422 L 0,1.26 c 0,0.182 -0.028,0.326 -0.085,0.429 -0.057,0.104 -0.133,0.182 -0.228,0.236 -0.096,0.054 -0.208,0.088 -0.336,0.104 -0.129,0.016 -0.265,0.024 -0.409,0.024 l -1.416,0 0,0.346 c 0.258,0.05 0.531,0.091 0.821,0.122 0.289,0.032 0.56,0.047 0.81,0.047 0.156,0 0.317,-0.014 0.485,-0.043 C -0.191,2.497 -0.039,2.438 0.099,2.347 0.235,2.256 0.347,2.123 0.433,1.951 0.52,1.777 0.563,1.547 0.563,1.258 l 0,-3.24 0.708,0 0,-0.407 z"
             inkscape:connector-curvature="0"
             id="path106"
             style="fill:#9c9ea0;fill-opacity:1;fill-rule:nonzero;stroke:none" /></g><g
           transform="translate(671.7197,66.9814)"
           id="g108"><path
             d="m 0,0 c -0.036,-0.013 -0.091,-0.024 -0.165,-0.034 -0.075,-0.009 -0.158,-0.018 -0.251,-0.028 -0.093,-0.009 -0.187,-0.017 -0.282,-0.024 -0.096,-0.006 -0.185,-0.009 -0.268,-0.009 -0.168,0 -0.316,0.016 -0.448,0.047 -0.131,0.031 -0.243,0.098 -0.335,0.197 -0.093,0.102 -0.163,0.245 -0.211,0.43 -0.047,0.186 -0.071,0.432 -0.071,0.74 l 0,3.094 -0.861,0 0,0.422 0.861,0 0,1.072 0.57,0.264 0,-1.336 1.461,0 0,-0.422 -1.461,0 0,-3.044 c 0,-0.214 0.012,-0.385 0.036,-0.514 C -1.401,0.727 -1.359,0.628 -1.3,0.559 -1.239,0.489 -1.157,0.444 -1.054,0.422 -0.948,0.4 -0.815,0.39 -0.654,0.39 L 0,0.39 0,0 z"
             inkscape:connector-curvature="0"
             id="path110"
             style="fill:#9c9ea0;fill-opacity:1;fill-rule:nonzero;stroke:none" /></g><path
           d="m 672.977,66.941 -0.586,0 0,4.875 0.586,0 0,-4.875 z m 0.062,6.055 -0.711,0 0,0.648 0.711,0 0,-0.648 z"
           inkscape:connector-curvature="0"
           id="path112"
           style="fill:#9c9ea0;fill-opacity:1;fill-rule:nonzero;stroke:none" /><g
           transform="translate(676.0332,67.293)"
           id="g114"><path
             d="m 0,0 c 0.162,0 0.328,0.024 0.498,0.074 0.17,0.051 0.323,0.152 0.461,0.302 0.137,0.15 0.25,0.362 0.34,0.636 0.09,0.272 0.135,0.632 0.135,1.078 0,0.445 -0.045,0.805 -0.135,1.077 C 1.209,3.44 1.096,3.652 0.959,3.803 0.821,3.953 0.668,4.054 0.498,4.104 0.328,4.154 0.162,4.18 0,4.18 -0.16,4.18 -0.328,4.154 -0.501,4.104 -0.674,4.054 -0.83,3.953 -0.967,3.803 -1.104,3.652 -1.218,3.44 -1.307,3.167 -1.396,2.895 -1.441,2.535 -1.441,2.09 c 0,-0.446 0.045,-0.806 0.134,-1.078 0.089,-0.274 0.203,-0.486 0.34,-0.636 C -0.83,0.226 -0.674,0.125 -0.501,0.074 -0.328,0.024 -0.16,0 0,0 m -0.018,-0.445 c -0.107,0 -0.232,0.007 -0.373,0.023 -0.139,0.016 -0.285,0.052 -0.433,0.108 -0.151,0.056 -0.298,0.138 -0.445,0.246 -0.146,0.106 -0.276,0.252 -0.389,0.437 -0.114,0.186 -0.205,0.415 -0.274,0.689 -0.069,0.272 -0.103,0.604 -0.103,0.994 0,0.389 0.035,0.722 0.107,0.999 0.073,0.276 0.166,0.51 0.283,0.702 0.116,0.191 0.248,0.344 0.394,0.457 0.147,0.112 0.296,0.201 0.448,0.264 0.153,0.063 0.301,0.103 0.445,0.122 0.143,0.019 0.268,0.029 0.376,0.029 0.107,0 0.232,-0.008 0.373,-0.023 C 0.53,4.585 0.676,4.549 0.824,4.492 0.975,4.436 1.121,4.354 1.264,4.248 1.407,4.141 1.537,3.994 1.654,3.809 1.771,3.624 1.863,3.395 1.932,3.121 2.001,2.848 2.035,2.517 2.035,2.127 2.035,1.737 1.999,1.404 1.928,1.128 1.855,0.852 1.762,0.617 1.645,0.426 1.528,0.234 1.396,0.082 1.246,-0.031 1.097,-0.145 0.945,-0.232 0.793,-0.295 0.641,-0.357 0.494,-0.398 0.354,-0.418 0.214,-0.437 0.09,-0.445 -0.018,-0.445"
             inkscape:connector-curvature="0"
             id="path116"
             style="fill:#9c9ea0;fill-opacity:1;fill-rule:nonzero;stroke:none" /></g><g
           transform="translate(682.6211,66.9414)"
           id="g118"><path
             d="m 0,0 -0.586,0 0,3.402 c 0,0.252 -0.028,0.449 -0.085,0.59 -0.058,0.142 -0.138,0.246 -0.242,0.317 -0.105,0.068 -0.226,0.112 -0.363,0.13 -0.138,0.02 -0.287,0.03 -0.449,0.03 -0.286,0 -0.534,-0.02 -0.743,-0.057 -0.21,-0.038 -0.374,-0.079 -0.493,-0.123 l 0,-4.289 -0.57,0 0,4.875 0.515,0 0.028,-0.255 c 0.072,0.032 0.165,0.067 0.279,0.105 0.113,0.038 0.236,0.074 0.367,0.109 0.132,0.035 0.271,0.062 0.417,0.086 0.147,0.021 0.289,0.033 0.427,0.033 0.167,0 0.339,-0.01 0.516,-0.029 C -0.807,4.905 -0.645,4.848 -0.498,4.75 -0.352,4.652 -0.232,4.501 -0.139,4.297 -0.047,4.093 0,3.808 0,3.443 L 0,0 z"
             inkscape:connector-curvature="0"
             id="path120"
             style="fill:#9c9ea0;fill-opacity:1;fill-rule:nonzero;stroke:none" /></g><g
           transform="translate(684.7852,67.3633)"
           id="g122"><path
             d="M 0,0 C 0.149,0 0.289,0.011 0.42,0.032 0.551,0.055 0.664,0.091 0.76,0.141 0.855,0.191 0.932,0.26 0.988,0.344 1.045,0.43 1.072,0.537 1.072,0.67 1.072,0.758 1.055,0.842 1.02,0.92 0.983,0.998 0.938,1.07 0.881,1.137 0.824,1.203 0.763,1.265 0.697,1.321 0.632,1.378 0.569,1.428 0.51,1.473 0.319,1.617 0.117,1.768 -0.098,1.926 -0.313,2.082 -0.503,2.228 -0.67,2.359 -0.849,2.504 -0.984,2.66 -1.077,2.826 c -0.093,0.168 -0.14,0.355 -0.14,0.563 0,0.277 0.069,0.492 0.206,0.646 0.137,0.154 0.299,0.268 0.488,0.34 0.187,0.072 0.381,0.116 0.582,0.132 0.2,0.016 0.363,0.024 0.488,0.024 C 0.75,4.531 0.941,4.522 1.12,4.506 1.3,4.488 1.438,4.474 1.533,4.461 l 0,-0.422 -1.076,0 C 0.308,4.039 0.166,4.029 0.031,4.01 -0.103,3.991 -0.221,3.958 -0.322,3.911 -0.424,3.864 -0.504,3.8 -0.564,3.718 -0.624,3.636 -0.654,3.529 -0.654,3.396 -0.654,3.321 -0.638,3.249 -0.604,3.18 -0.572,3.11 -0.529,3.045 -0.475,2.981 -0.422,2.919 -0.363,2.862 -0.301,2.812 -0.238,2.762 -0.178,2.715 -0.117,2.67 0.091,2.52 0.296,2.368 0.498,2.217 0.701,2.066 0.897,1.909 1.088,1.746 1.264,1.601 1.402,1.443 1.505,1.273 1.607,1.104 1.658,0.912 1.658,0.698 1.658,0.421 1.595,0.203 1.467,0.042 1.338,-0.118 1.183,-0.238 1,-0.316 0.818,-0.395 0.627,-0.445 0.428,-0.468 0.228,-0.489 0.057,-0.5 -0.087,-0.5 c -0.251,0 -0.477,0.009 -0.681,0.027 -0.203,0.02 -0.355,0.035 -0.457,0.048 L -1.225,0 0,0 z"
             inkscape:connector-curvature="0"
             id="path124"
             style="fill:#9c9ea0;fill-opacity:1;fill-rule:nonzero;stroke:none" /></g><g
           transform="translate(692.3633,66.9824)"
           id="g126"><path
             d="m 0,0 c -0.293,-0.069 -0.684,-0.104 -1.174,-0.104 -0.107,0 -0.233,0.008 -0.377,0.024 -0.142,0.016 -0.289,0.053 -0.438,0.112 -0.15,0.06 -0.296,0.144 -0.44,0.25 C -2.572,0.389 -2.7,0.535 -2.814,0.72 -2.928,0.905 -3.019,1.131 -3.088,1.398 -3.156,1.664 -3.19,1.986 -3.19,2.363 c 0,0.408 0.044,0.753 0.129,1.035 0.087,0.284 0.201,0.518 0.341,0.707 0.14,0.188 0.299,0.336 0.475,0.443 0.177,0.106 0.354,0.184 0.533,0.235 0.18,0.05 0.353,0.081 0.521,0.094 0.166,0.013 0.31,0.019 0.429,0.019 0.125,0 0.251,-0.002 0.376,-0.007 0.126,-0.006 0.234,-0.014 0.323,-0.024 l 0,-0.445 -0.555,0 C -0.846,4.42 -1.076,4.398 -1.309,4.358 -1.541,4.317 -1.754,4.229 -1.945,4.09 -2.136,3.951 -2.293,3.748 -2.415,3.478 -2.537,3.207 -2.599,2.847 -2.599,2.395 c 0,-0.465 0.055,-0.831 0.165,-1.098 0.112,-0.267 0.252,-0.468 0.422,-0.603 0.17,-0.134 0.357,-0.219 0.56,-0.255 0.203,-0.034 0.4,-0.05 0.592,-0.05 L 0,0.389 0,0 z"
             inkscape:connector-curvature="0"
             id="path128"
             style="fill:#9c9ea0;fill-opacity:1;fill-rule:nonzero;stroke:none" /></g><g
           transform="translate(695.0605,67.293)"
           id="g130"><path
             d="m 0,0 c 0.162,0 0.328,0.024 0.498,0.074 0.17,0.051 0.323,0.152 0.461,0.302 0.137,0.15 0.25,0.362 0.34,0.636 0.09,0.272 0.135,0.632 0.135,1.078 0,0.445 -0.045,0.805 -0.135,1.077 C 1.209,3.44 1.096,3.652 0.959,3.803 0.821,3.953 0.668,4.054 0.498,4.104 0.328,4.154 0.162,4.18 0,4.18 -0.16,4.18 -0.328,4.154 -0.501,4.104 -0.674,4.054 -0.83,3.953 -0.967,3.803 -1.104,3.652 -1.218,3.44 -1.307,3.167 -1.396,2.895 -1.441,2.535 -1.441,2.09 c 0,-0.446 0.045,-0.806 0.134,-1.078 0.089,-0.274 0.203,-0.486 0.34,-0.636 C -0.83,0.226 -0.674,0.125 -0.501,0.074 -0.328,0.024 -0.16,0 0,0 m -0.018,-0.445 c -0.107,0 -0.232,0.007 -0.373,0.023 -0.139,0.016 -0.285,0.052 -0.433,0.108 -0.151,0.056 -0.298,0.138 -0.445,0.246 -0.146,0.106 -0.276,0.252 -0.389,0.437 -0.114,0.186 -0.205,0.415 -0.274,0.689 -0.069,0.272 -0.103,0.604 -0.103,0.994 0,0.389 0.035,0.722 0.107,0.999 0.073,0.276 0.166,0.51 0.283,0.702 0.116,0.191 0.248,0.344 0.394,0.457 0.147,0.112 0.296,0.201 0.448,0.264 0.153,0.063 0.301,0.103 0.445,0.122 0.143,0.019 0.268,0.029 0.376,0.029 0.107,0 0.232,-0.008 0.373,-0.023 C 0.53,4.585 0.676,4.549 0.824,4.492 0.975,4.436 1.121,4.354 1.264,4.248 1.407,4.141 1.537,3.994 1.654,3.809 1.771,3.624 1.863,3.395 1.932,3.121 2.001,2.848 2.035,2.517 2.035,2.127 2.035,1.737 1.999,1.404 1.928,1.128 1.855,0.852 1.762,0.617 1.645,0.426 1.528,0.234 1.396,0.082 1.246,-0.031 1.097,-0.145 0.945,-0.232 0.793,-0.295 0.641,-0.357 0.494,-0.398 0.354,-0.418 0.214,-0.437 0.09,-0.445 -0.018,-0.445"
             inkscape:connector-curvature="0"
             id="path132"
             style="fill:#9c9ea0;fill-opacity:1;fill-rule:nonzero;stroke:none" /></g><g
           transform="translate(698.6875,66.9414)"
           id="g134"><path
             d="m 0,0 -0.57,0 0,4.873 0.507,0 0.036,-0.434 c 0.131,0.12 0.303,0.239 0.515,0.358 0.212,0.119 0.494,0.18 0.847,0.18 0.186,0 0.35,-0.008 0.493,-0.024 l 0,-0.5 -0.6,0 C 1.055,4.453 0.905,4.441 0.779,4.42 0.654,4.397 0.545,4.371 0.453,4.34 0.359,4.308 0.277,4.269 0.206,4.222 0.135,4.174 0.065,4.129 0,4.085 L 0,0 z"
             inkscape:connector-curvature="0"
             id="path136"
             style="fill:#9c9ea0;fill-opacity:1;fill-rule:nonzero;stroke:none" /></g><g
           transform="translate(702.2539,67.3555)"
           id="g138"><path
             d="M 0,0 C 0.185,0 0.387,0.017 0.604,0.051 0.822,0.086 1.027,0.171 1.219,0.306 1.41,0.44 1.57,0.645 1.698,0.918 1.826,1.191 1.891,1.563 1.891,2.035 1.891,2.455 1.846,2.795 1.757,3.053 1.667,3.311 1.552,3.511 1.412,3.655 1.271,3.8 1.115,3.897 0.945,3.947 0.775,3.998 0.611,4.023 0.457,4.023 0.164,4.023 -0.055,4.006 -0.197,3.971 -0.342,3.937 -0.455,3.903 -0.539,3.872 L -0.539,0 0,0 z m -0.539,-2.344 -0.57,0 0,6.805 0.507,0 0.028,-0.248 c 0.131,0.069 0.293,0.137 0.484,0.199 0.192,0.064 0.427,0.096 0.708,0.096 0.161,0 0.351,-0.025 0.57,-0.071 C 1.405,4.39 1.611,4.284 1.806,4.121 2,3.957 2.164,3.717 2.299,3.398 2.434,3.082 2.5,2.652 2.5,2.111 2.5,1.722 2.459,1.389 2.375,1.111 2.291,0.836 2.182,0.602 2.048,0.409 1.913,0.218 1.761,0.064 1.591,-0.048 1.42,-0.161 1.248,-0.248 1.075,-0.308 0.902,-0.367 0.736,-0.406 0.578,-0.426 0.419,-0.444 0.283,-0.453 0.17,-0.453 c -0.144,0 -0.277,0.004 -0.399,0.014 -0.123,0.009 -0.226,0.02 -0.31,0.033 l 0,-1.938 z"
             inkscape:connector-curvature="0"
             id="path140"
             style="fill:#9c9ea0;fill-opacity:1;fill-rule:nonzero;stroke:none" /></g><path
           d="m 706.816,66.941 -0.898,0 0,0.836 0.898,0 0,-0.836 z"
           inkscape:connector-curvature="0"
           id="path142"
           style="fill:#9c9ea0;fill-opacity:1;fill-rule:nonzero;stroke:none" /><g
           transform="translate(713.4863,69.082)"
           id="g144"><path
             d="M 0,0 -1.29,3.725 -2.625,0 0,0 z m 1.345,-2.141 -0.628,0 -0.573,1.649 -2.904,0 -0.592,-1.649 -0.59,0 2.294,6.274 0.752,0 2.241,-6.274 z"
             inkscape:connector-curvature="0"
             id="path146"
             style="fill:#9c9ea0;fill-opacity:1;fill-rule:nonzero;stroke:none" /></g><path
           d="m 715.994,66.941 -0.586,0 0,6.836 0.586,0 0,-6.836 z"
           inkscape:connector-curvature="0"
           id="path148"
           style="fill:#9c9ea0;fill-opacity:1;fill-rule:nonzero;stroke:none" /><path
           d="m 717.875,66.941 -0.586,0 0,6.836 0.586,0 0,-6.836 z"
           inkscape:connector-curvature="0"
           id="path150"
           style="fill:#9c9ea0;fill-opacity:1;fill-rule:nonzero;stroke:none" /><g
           transform="translate(721.7646,66.9414)"
           id="g152"><path
             d="m 0,0 -0.57,0 0,4.873 0.507,0 0.037,-0.434 c 0.13,0.12 0.302,0.239 0.514,0.358 0.212,0.119 0.494,0.18 0.847,0.18 0.186,0 0.35,-0.008 0.493,-0.024 l 0,-0.5 -0.6,0 C 1.055,4.453 0.905,4.441 0.779,4.42 0.654,4.397 0.545,4.371 0.452,4.34 0.36,4.308 0.277,4.269 0.206,4.222 0.134,4.174 0.065,4.129 0,4.085 L 0,0 z"
             inkscape:connector-curvature="0"
             id="path154"
             style="fill:#9c9ea0;fill-opacity:1;fill-rule:nonzero;stroke:none" /></g><path
           d="m 724.8,66.941 -0.586,0 0,4.875 0.586,0 0,-4.875 z m 0.062,6.055 -0.711,0 0,0.648 0.711,0 0,-0.648 z"
           inkscape:connector-curvature="0"
           id="path156"
           style="fill:#9c9ea0;fill-opacity:1;fill-rule:nonzero;stroke:none" /><g
           transform="translate(727.6768,69.0508)"
           id="g158"><path
             d="M 0,0 C 0.138,0 0.276,0.014 0.417,0.042 0.558,0.07 0.684,0.129 0.794,0.217 0.905,0.305 0.996,0.427 1.068,0.581 1.14,0.735 1.176,0.941 1.176,1.2 1.176,1.452 1.14,1.658 1.068,1.819 0.996,1.98 0.905,2.106 0.794,2.197 0.684,2.289 0.558,2.351 0.417,2.382 0.276,2.414 0.138,2.43 0,2.43 -0.138,2.43 -0.276,2.414 -0.417,2.382 -0.558,2.351 -0.684,2.289 -0.794,2.197 -0.905,2.106 -0.996,1.98 -1.068,1.819 -1.14,1.658 -1.176,1.452 -1.176,1.2 -1.176,0.941 -1.14,0.735 -1.068,0.581 -0.996,0.427 -0.905,0.305 -0.794,0.217 -0.684,0.129 -0.558,0.07 -0.417,0.042 -0.276,0.014 -0.138,0 0,0 m -0.888,-1.906 c -0.053,-0.039 -0.107,-0.081 -0.162,-0.129 -0.054,-0.047 -0.104,-0.104 -0.152,-0.17 -0.048,-0.066 -0.086,-0.145 -0.116,-0.233 -0.031,-0.089 -0.045,-0.197 -0.045,-0.323 0,-0.183 0.037,-0.337 0.112,-0.46 0.074,-0.123 0.175,-0.221 0.301,-0.295 0.125,-0.072 0.271,-0.125 0.439,-0.156 0.167,-0.031 0.344,-0.047 0.53,-0.047 0.173,0 0.352,0.014 0.538,0.042 0.185,0.029 0.356,0.083 0.511,0.161 0.156,0.08 0.283,0.188 0.381,0.324 0.099,0.135 0.149,0.311 0.149,0.526 0,0.189 -0.035,0.336 -0.104,0.437 -0.068,0.101 -0.161,0.175 -0.278,0.223 -0.116,0.047 -0.249,0.075 -0.399,0.085 -0.15,0.009 -0.302,0.015 -0.458,0.015 l -1.247,0 z m 1.274,0.515 c 0.178,0 0.373,-0.006 0.582,-0.019 C 1.177,-1.423 1.37,-1.465 1.546,-1.537 1.723,-1.61 1.869,-1.727 1.985,-1.887 2.102,-2.048 2.16,-2.276 2.16,-2.572 2.16,-2.906 2.093,-3.176 1.959,-3.381 1.824,-3.585 1.651,-3.744 1.439,-3.857 1.228,-3.971 0.988,-4.047 0.723,-4.084 0.456,-4.122 0.192,-4.141 -0.07,-4.141 c -0.24,0 -0.471,0.017 -0.695,0.052 -0.223,0.034 -0.423,0.103 -0.595,0.203 -0.173,0.101 -0.313,0.24 -0.416,0.416 -0.106,0.177 -0.158,0.407 -0.158,0.691 0,0.157 0.027,0.301 0.08,0.434 0.054,0.132 0.123,0.252 0.207,0.359 0.083,0.107 0.178,0.202 0.285,0.284 0.107,0.082 0.215,0.147 0.322,0.198 -0.083,0.063 -0.151,0.146 -0.204,0.249 -0.054,0.103 -0.08,0.227 -0.08,0.37 0,0.132 0.04,0.254 0.12,0.366 0.08,0.113 0.177,0.195 0.289,0.245 -0.107,0.049 -0.209,0.118 -0.305,0.203 -0.095,0.085 -0.181,0.186 -0.259,0.306 -0.079,0.12 -0.139,0.259 -0.184,0.415 -0.045,0.159 -0.067,0.34 -0.067,0.549 0,0.377 0.068,0.676 0.206,0.897 0.137,0.22 0.299,0.385 0.488,0.496 0.188,0.109 0.38,0.18 0.574,0.212 0.193,0.032 0.348,0.048 0.461,0.048 0.113,0 0.26,-0.014 0.439,-0.039 C 0.617,2.788 0.8,2.726 0.985,2.625 1.081,2.65 1.194,2.678 1.325,2.709 1.457,2.741 1.593,2.771 1.733,2.799 1.874,2.828 2.01,2.854 2.141,2.875 2.272,2.898 2.383,2.916 2.473,2.93 l 0,-0.576 -1.129,0 C 1.464,2.228 1.559,2.072 1.631,1.891 1.702,1.707 1.738,1.478 1.738,1.2 1.738,0.93 1.702,0.702 1.631,0.52 1.559,0.337 1.465,0.186 1.349,0.066 1.231,-0.054 1.102,-0.146 0.959,-0.208 0.815,-0.271 0.672,-0.316 0.528,-0.346 0.385,-0.373 0.251,-0.391 0.125,-0.397 0,-0.404 -0.102,-0.406 -0.18,-0.406 l -0.519,0 0,-0.985 1.085,0 z"
             inkscape:connector-curvature="0"
             id="path160"
             style="fill:#9c9ea0;fill-opacity:1;fill-rule:nonzero;stroke:none" /></g><g
           transform="translate(734.2813,66.9414)"
           id="g162"><path
             d="m 0,0 -0.57,0 0,3.384 c 0,0.27 -0.034,0.477 -0.104,0.622 -0.068,0.144 -0.156,0.252 -0.264,0.32 -0.108,0.07 -0.226,0.111 -0.354,0.123 -0.129,0.013 -0.256,0.02 -0.381,0.02 -0.258,0 -0.504,-0.023 -0.74,-0.067 C -2.649,4.358 -2.824,4.311 -2.938,4.261 l 0,-4.261 -0.57,0 0,6.836 0.57,0 0.002,-2.197 c 0.192,0.088 0.41,0.164 0.654,0.23 0.245,0.067 0.511,0.1 0.797,0.1 0.136,0 0.291,-0.01 0.461,-0.03 0.17,-0.018 0.331,-0.076 0.483,-0.173 C -0.39,4.668 -0.261,4.518 -0.156,4.313 -0.053,4.108 0,3.821 0,3.45 L 0,0 z"
             inkscape:connector-curvature="0"
             id="path164"
             style="fill:#9c9ea0;fill-opacity:1;fill-rule:nonzero;stroke:none" /></g><g
           transform="translate(737.8945,66.9814)"
           id="g166"><path
             d="m 0,0 c -0.036,-0.013 -0.091,-0.024 -0.166,-0.034 -0.074,-0.009 -0.157,-0.018 -0.25,-0.028 -0.093,-0.009 -0.187,-0.017 -0.282,-0.024 -0.095,-0.006 -0.185,-0.009 -0.269,-0.009 -0.167,0 -0.315,0.016 -0.447,0.047 -0.131,0.031 -0.243,0.098 -0.335,0.197 -0.093,0.102 -0.163,0.245 -0.211,0.43 -0.048,0.186 -0.071,0.432 -0.071,0.74 l 0,3.094 -0.861,0 0,0.422 0.861,0 0,1.072 0.57,0.264 0,-1.336 1.461,0 0,-0.422 -1.461,0 0,-3.044 c 0,-0.214 0.012,-0.385 0.036,-0.514 C -1.401,0.727 -1.359,0.628 -1.3,0.559 -1.24,0.489 -1.158,0.444 -1.053,0.422 -0.948,0.4 -0.815,0.39 -0.654,0.39 L 0,0.39 0,0 z"
             inkscape:connector-curvature="0"
             id="path168"
             style="fill:#9c9ea0;fill-opacity:1;fill-rule:nonzero;stroke:none" /></g><g
           transform="translate(739.4854,67.3633)"
           id="g170"><path
             d="M 0,0 C 0.148,0 0.289,0.011 0.42,0.032 0.551,0.055 0.664,0.091 0.76,0.141 0.854,0.191 0.931,0.26 0.987,0.344 1.044,0.43 1.072,0.537 1.072,0.67 1.072,0.758 1.055,0.842 1.019,0.92 0.983,0.998 0.937,1.07 0.88,1.137 0.823,1.203 0.763,1.265 0.697,1.321 0.632,1.378 0.569,1.428 0.51,1.473 0.318,1.617 0.116,1.768 -0.099,1.926 -0.313,2.082 -0.503,2.228 -0.67,2.359 -0.85,2.504 -0.985,2.66 -1.078,2.826 c -0.093,0.168 -0.139,0.355 -0.139,0.563 0,0.277 0.069,0.492 0.205,0.646 0.138,0.154 0.3,0.268 0.488,0.34 0.188,0.072 0.381,0.116 0.582,0.132 0.2,0.016 0.363,0.024 0.488,0.024 C 0.749,4.531 0.94,4.522 1.12,4.506 1.299,4.488 1.437,4.474 1.532,4.461 l 0,-0.422 -1.075,0 C 0.308,4.039 0.165,4.029 0.031,4.01 -0.104,3.991 -0.222,3.958 -0.323,3.911 -0.425,3.864 -0.505,3.8 -0.564,3.718 -0.624,3.636 -0.654,3.529 -0.654,3.396 -0.654,3.321 -0.638,3.249 -0.605,3.18 -0.572,3.11 -0.529,3.045 -0.476,2.981 -0.422,2.919 -0.364,2.862 -0.302,2.812 -0.239,2.762 -0.178,2.715 -0.118,2.67 0.09,2.52 0.296,2.368 0.498,2.217 0.7,2.066 0.897,1.909 1.088,1.746 1.263,1.601 1.401,1.443 1.504,1.273 1.606,1.104 1.658,0.912 1.658,0.698 1.658,0.421 1.594,0.203 1.466,0.042 1.337,-0.118 1.183,-0.238 1,-0.316 0.818,-0.395 0.627,-0.445 0.427,-0.468 0.228,-0.489 0.056,-0.5 -0.088,-0.5 c -0.251,0 -0.477,0.009 -0.681,0.027 -0.202,0.02 -0.354,0.035 -0.456,0.048 L -1.225,0 0,0 z"
             inkscape:connector-curvature="0"
             id="path172"
             style="fill:#9c9ea0;fill-opacity:1;fill-rule:nonzero;stroke:none" /></g><g
           transform="translate(744.7148,66.9414)"
           id="g174"><path
             d="m 0,0 -0.57,0 0,4.873 0.507,0 0.037,-0.434 c 0.13,0.12 0.302,0.239 0.514,0.358 0.212,0.119 0.494,0.18 0.847,0.18 0.186,0 0.35,-0.008 0.493,-0.024 l 0,-0.5 -0.6,0 C 1.055,4.453 0.905,4.441 0.779,4.42 0.654,4.397 0.545,4.371 0.452,4.34 0.359,4.308 0.277,4.269 0.206,4.222 0.135,4.174 0.065,4.129 0,4.085 L 0,0 z"
             inkscape:connector-curvature="0"
             id="path176"
             style="fill:#9c9ea0;fill-opacity:1;fill-rule:nonzero;stroke:none" /></g><g
           transform="translate(750.1338,69.832)"
           id="g178"><path
             d="m 0,0 c 0,0.321 -0.03,0.588 -0.09,0.799 -0.059,0.212 -0.142,0.382 -0.25,0.512 -0.107,0.128 -0.236,0.218 -0.386,0.269 -0.148,0.051 -0.312,0.076 -0.492,0.076 -0.173,0 -0.34,-0.03 -0.501,-0.09 C -1.88,1.506 -2.024,1.411 -2.153,1.281 -2.281,1.152 -2.389,0.982 -2.476,0.771 -2.562,0.56 -2.617,0.303 -2.641,0 L 0,0 z m 0.479,-2.83 c -0.114,-0.02 -0.292,-0.045 -0.538,-0.076 -0.245,-0.032 -0.564,-0.047 -0.959,-0.047 -0.197,0 -0.422,0.023 -0.676,0.07 -0.254,0.047 -0.494,0.154 -0.722,0.32 -0.228,0.167 -0.42,0.409 -0.579,0.727 -0.16,0.316 -0.239,0.749 -0.239,1.296 0,0.603 0.076,1.081 0.228,1.433 0.152,0.351 0.337,0.617 0.555,0.796 0.218,0.179 0.443,0.294 0.676,0.344 0.233,0.051 0.429,0.076 0.59,0.076 0.186,0 0.382,-0.025 0.591,-0.076 C -0.385,1.982 -0.195,1.879 -0.025,1.722 0.146,1.564 0.287,1.336 0.4,1.037 0.514,0.738 0.57,0.343 0.57,-0.148 l 0,-0.321 -3.218,0 c 0,-0.47 0.058,-0.838 0.174,-1.104 0.117,-0.267 0.268,-0.466 0.453,-0.597 0.185,-0.132 0.394,-0.213 0.627,-0.244 0.233,-0.031 0.466,-0.047 0.699,-0.047 l 1.174,0 0,-0.369 z"
             inkscape:connector-curvature="0"
             id="path180"
             style="fill:#9c9ea0;fill-opacity:1;fill-rule:nonzero;stroke:none" /></g><g
           transform="translate(752.6982,67.3633)"
           id="g182"><path
             d="M 0,0 C 0.148,0 0.289,0.011 0.42,0.032 0.551,0.055 0.664,0.091 0.76,0.141 0.854,0.191 0.931,0.26 0.987,0.344 1.044,0.43 1.072,0.537 1.072,0.67 1.072,0.758 1.055,0.842 1.019,0.92 0.983,0.998 0.937,1.07 0.88,1.137 0.823,1.203 0.763,1.265 0.697,1.321 0.632,1.378 0.569,1.428 0.51,1.473 0.318,1.617 0.116,1.768 -0.099,1.926 -0.313,2.082 -0.503,2.228 -0.67,2.359 -0.85,2.504 -0.985,2.66 -1.078,2.826 c -0.093,0.168 -0.139,0.355 -0.139,0.563 0,0.277 0.069,0.492 0.205,0.646 0.138,0.154 0.3,0.268 0.488,0.34 0.188,0.072 0.381,0.116 0.582,0.132 0.2,0.016 0.363,0.024 0.488,0.024 C 0.749,4.531 0.94,4.522 1.12,4.506 1.299,4.488 1.437,4.474 1.532,4.461 l 0,-0.422 -1.075,0 C 0.308,4.039 0.165,4.029 0.031,4.01 -0.104,3.991 -0.222,3.958 -0.323,3.911 -0.425,3.864 -0.505,3.8 -0.564,3.718 -0.624,3.636 -0.654,3.529 -0.654,3.396 -0.654,3.321 -0.638,3.249 -0.605,3.18 -0.572,3.11 -0.529,3.045 -0.476,2.981 -0.422,2.919 -0.364,2.862 -0.302,2.812 -0.239,2.762 -0.178,2.715 -0.118,2.67 0.09,2.52 0.296,2.368 0.498,2.217 0.7,2.066 0.897,1.909 1.088,1.746 1.263,1.601 1.401,1.443 1.504,1.273 1.606,1.104 1.658,0.912 1.658,0.698 1.658,0.421 1.594,0.203 1.466,0.042 1.337,-0.118 1.183,-0.238 1,-0.316 0.818,-0.395 0.627,-0.445 0.427,-0.468 0.228,-0.489 0.056,-0.5 -0.088,-0.5 c -0.251,0 -0.477,0.009 -0.681,0.027 -0.202,0.02 -0.354,0.035 -0.456,0.048 L -1.225,0 0,0 z"
             inkscape:connector-curvature="0"
             id="path184"
             style="fill:#9c9ea0;fill-opacity:1;fill-rule:nonzero;stroke:none" /></g><g
           transform="translate(758.3037,69.832)"
           id="g186"><path
             d="m 0,0 c 0,0.321 -0.03,0.588 -0.09,0.799 -0.059,0.212 -0.142,0.382 -0.25,0.512 -0.107,0.128 -0.236,0.218 -0.386,0.269 -0.148,0.051 -0.312,0.076 -0.492,0.076 -0.173,0 -0.34,-0.03 -0.501,-0.09 C -1.88,1.506 -2.024,1.411 -2.153,1.281 -2.281,1.152 -2.389,0.982 -2.476,0.771 -2.562,0.56 -2.617,0.303 -2.641,0 L 0,0 z m 0.479,-2.83 c -0.114,-0.02 -0.292,-0.045 -0.538,-0.076 -0.245,-0.032 -0.564,-0.047 -0.959,-0.047 -0.197,0 -0.422,0.023 -0.676,0.07 -0.254,0.047 -0.494,0.154 -0.722,0.32 -0.228,0.167 -0.42,0.409 -0.579,0.727 -0.16,0.316 -0.239,0.749 -0.239,1.296 0,0.603 0.076,1.081 0.228,1.433 0.152,0.351 0.337,0.617 0.555,0.796 0.218,0.179 0.443,0.294 0.676,0.344 0.233,0.051 0.429,0.076 0.59,0.076 0.186,0 0.382,-0.025 0.591,-0.076 C -0.385,1.982 -0.195,1.879 -0.025,1.722 0.146,1.564 0.287,1.336 0.4,1.037 0.514,0.738 0.57,0.343 0.57,-0.148 l 0,-0.321 -3.218,0 c 0,-0.47 0.058,-0.838 0.174,-1.104 0.117,-0.267 0.268,-0.466 0.453,-0.597 0.185,-0.132 0.394,-0.213 0.627,-0.244 0.233,-0.031 0.466,-0.047 0.699,-0.047 l 1.174,0 0,-0.369 z"
             inkscape:connector-curvature="0"
             id="path188"
             style="fill:#9c9ea0;fill-opacity:1;fill-rule:nonzero;stroke:none" /></g><g
           transform="translate(760.5264,66.9414)"
           id="g190"><path
             d="m 0,0 -0.57,0 0,4.873 0.507,0 0.037,-0.434 c 0.13,0.12 0.302,0.239 0.514,0.358 0.212,0.119 0.494,0.18 0.847,0.18 0.186,0 0.35,-0.008 0.493,-0.024 l 0,-0.5 -0.6,0 C 1.055,4.453 0.905,4.441 0.779,4.42 0.654,4.397 0.545,4.371 0.452,4.34 0.36,4.308 0.277,4.269 0.206,4.222 0.134,4.174 0.065,4.129 0,4.085 L 0,0 z"
             inkscape:connector-curvature="0"
             id="path192"
             style="fill:#9c9ea0;fill-opacity:1;fill-rule:nonzero;stroke:none" /></g><g
           transform="translate(764.8623,66.9414)"
           id="g194"><path
             d="m 0,0 -0.843,0 -1.621,4.875 0.6,0 1.433,-4.451 0.045,0 1.434,4.451 0.583,0 L 0,0 z"
             inkscape:connector-curvature="0"
             id="path196"
             style="fill:#9c9ea0;fill-opacity:1;fill-rule:nonzero;stroke:none" /></g><g
           transform="translate(770.1738,69.832)"
           id="g198"><path
             d="m 0,0 c 0,0.321 -0.03,0.588 -0.09,0.799 -0.059,0.212 -0.142,0.382 -0.25,0.512 -0.107,0.128 -0.236,0.218 -0.385,0.269 -0.149,0.051 -0.313,0.076 -0.493,0.076 -0.173,0 -0.34,-0.03 -0.501,-0.09 C -1.88,1.506 -2.024,1.411 -2.152,1.281 -2.281,1.152 -2.389,0.982 -2.475,0.771 -2.562,0.56 -2.617,0.303 -2.641,0 L 0,0 z m 0.479,-2.83 c -0.114,-0.02 -0.292,-0.045 -0.538,-0.076 -0.245,-0.032 -0.564,-0.047 -0.959,-0.047 -0.197,0 -0.422,0.023 -0.676,0.07 -0.254,0.047 -0.494,0.154 -0.722,0.32 -0.227,0.167 -0.42,0.409 -0.579,0.727 -0.159,0.316 -0.239,0.749 -0.239,1.296 0,0.603 0.076,1.081 0.228,1.433 0.152,0.351 0.337,0.617 0.555,0.796 0.218,0.179 0.443,0.294 0.676,0.344 0.232,0.051 0.429,0.076 0.59,0.076 0.186,0 0.382,-0.025 0.591,-0.076 C -0.385,1.982 -0.195,1.879 -0.025,1.722 0.145,1.564 0.287,1.336 0.4,1.037 0.514,0.738 0.57,0.343 0.57,-0.148 l 0,-0.321 -3.218,0 c 0,-0.47 0.058,-0.838 0.174,-1.104 0.117,-0.267 0.268,-0.466 0.453,-0.597 0.185,-0.132 0.394,-0.213 0.627,-0.244 0.233,-0.031 0.466,-0.047 0.699,-0.047 l 1.174,0 0,-0.369 z"
             inkscape:connector-curvature="0"
             id="path200"
             style="fill:#9c9ea0;fill-opacity:1;fill-rule:nonzero;stroke:none" /></g><g
           transform="translate(774.5918,71.4023)"
           id="g202"><path
             d="m 0,0 -0.538,0 c -0.185,0 -0.388,-0.018 -0.609,-0.053 -0.221,-0.034 -0.427,-0.121 -0.619,-0.259 -0.191,-0.137 -0.35,-0.343 -0.479,-0.617 -0.128,-0.273 -0.193,-0.645 -0.193,-1.116 0,-0.421 0.046,-0.76 0.139,-1.018 0.093,-0.257 0.209,-0.457 0.35,-0.598 0.14,-0.142 0.296,-0.237 0.466,-0.288 0.17,-0.05 0.336,-0.074 0.498,-0.074 0.286,0 0.501,0.016 0.644,0.05 0.144,0.035 0.257,0.069 0.341,0.1 L 0,0 z m 0.586,-4.461 -0.511,0 -0.036,0.247 c -0.126,-0.069 -0.284,-0.136 -0.476,-0.199 -0.191,-0.064 -0.43,-0.095 -0.718,-0.095 -0.161,0 -0.35,0.027 -0.566,0.08 -0.215,0.053 -0.42,0.164 -0.615,0.334 -0.194,0.17 -0.358,0.417 -0.493,0.74 -0.135,0.325 -0.202,0.757 -0.202,1.297 0,0.391 0.042,0.722 0.125,0.996 0.084,0.274 0.193,0.502 0.328,0.688 0.135,0.185 0.287,0.334 0.457,0.443 0.171,0.111 0.343,0.194 0.516,0.25 0.173,0.057 0.339,0.093 0.498,0.11 0.158,0.015 0.294,0.023 0.408,0.023 0.136,0 0.268,-0.006 0.394,-0.015 C -0.18,0.43 -0.078,0.418 0,0.406 l 0,1.969 0.586,0 0,-6.836 z"
             inkscape:connector-curvature="0"
             id="path204"
             style="fill:#9c9ea0;fill-opacity:1;fill-rule:nonzero;stroke:none" /></g><path
           d="m 777.507,66.941 -0.898,0 0,0.836 0.898,0 0,-0.836 z"
           inkscape:connector-curvature="0"
           id="path206"
           style="fill:#9c9ea0;fill-opacity:1;fill-rule:nonzero;stroke:none" /><g
           transform="translate(470.8877,356.3921)"
           id="g208"><path
             d="m 0,0 0,27.883 -28.525,0 0,-46.314 c 0,-7.654 -6.487,-13.873 -14.456,-13.873 -7.969,0 -14.457,6.219 -14.457,13.873 l 0,46.314 -28.524,0 0,-46.166 c 17.8,-5.453 30.816,-21.176 31.546,-39.877 3.648,-0.966 7.47,-1.528 11.435,-1.528 9.821,0 18.854,3.213 26.099,8.558 l 0,20.158 C -16.882,-18.165 -10.189,-6.838 0,0"
             inkscape:connector-curvature="0"
             id="path210"
             style="fill:#febc00;fill-opacity:1;fill-rule:nonzero;stroke:none" /></g><g
           transform="translate(543.5918,363.209)"
           id="g212"><path
             d="M 0,0 C -9.535,0 -18.29,-3.277 -25.108,-8.71 -31.927,-3.277 -40.684,0 -50.219,0 c -8.361,0 -16.102,-2.534 -22.485,-6.817 -10.19,-6.84 -16.882,-18.165 -16.882,-30.972 l 0,-20.158 0,-30.813 28.525,0 0,50.971 c 0,5.735 4.862,10.403 10.842,10.403 5.981,0 10.847,-4.668 10.847,-10.403 l 0,-50.971 28.525,0 0,50.971 c 0,5.735 4.867,10.403 10.847,10.403 5.976,0 10.842,-4.668 10.842,-10.403 l 0,-50.971 28.522,0 0,50.971 C 39.364,-16.956 21.704,0 0,0"
             inkscape:connector-curvature="0"
             id="path214"
             style="fill:#f2685e;fill-opacity:1;fill-rule:nonzero;stroke:none" /></g><g
           transform="translate(298.8525,301.835)"
           id="g216"><path
             d="m 0,0 -13.521,0 0,35.076 13.521,0 c 10.074,0 18.267,-7.871 18.267,-17.546 C 18.267,7.866 10.074,0 0,0 M 45.048,29.519 C 39.565,48.481 21.473,62.462 0,62.462 l -42.046,0 0,-89.848 42.046,0 c 10.67,0 20.486,3.484 28.364,9.278 11.178,8.216 18.428,21.112 18.428,35.638 0,4.155 -0.638,8.165 -1.744,11.989"
             inkscape:connector-curvature="0"
             id="path218"
             style="fill:#618ffc;fill-opacity:1;fill-rule:nonzero;stroke:none" /></g><g
           transform="translate(388.0327,294.4561)"
           id="g220"><path
             d="m 0,0 c 0,-8.927 -7.568,-16.188 -16.872,-16.188 -9.302,0 -16.872,7.261 -16.872,16.188 l 0,2.138 c 0,8.927 7.57,16.188 16.872,16.188 C -7.568,18.326 0,11.065 0,2.138 L 0,0 z M 28.439,3.776 C 27.709,22.477 14.692,38.2 -3.105,43.653 c -4.347,1.329 -8.967,2.057 -13.767,2.057 -10.235,0 -19.657,-3.306 -27.259,-8.812 1.104,-3.824 1.742,-7.833 1.742,-11.989 0,-14.526 -7.249,-27.424 -18.426,-35.638 5.001,-18.846 22.777,-32.842 43.943,-32.842 9.925,0 19.088,3.104 26.567,8.316 4.273,-3.707 10.318,-6.111 18.829,-7.337 l 0,41.716 0,0.876 0,1.201 0,0.937 c 0,0.554 -0.066,1.094 -0.085,1.638"
             inkscape:connector-curvature="0"
             id="path222"
             style="fill:#adc900;fill-opacity:1;fill-rule:nonzero;stroke:none" /></g></g></g></g></svg>