<?xml version="1.0" encoding="utf-8"?>
<!-- Generated by IcoMoon.io -->
<!DOCTYPE svg PUBLIC "-//W3C//DTD SVG 1.1//EN" "http://www.w3.org/Graphics/SVG/1.1/DTD/svg11.dtd">
<svg version="1.1" xmlns="http://www.w3.org/2000/svg" xmlns:xlink="http://www.w3.org/1999/xlink" width="35" height="32" viewBox="0 0 35 32">
<g>
	<line stroke-width="1" x1="" y1="" x2="" y2="" stroke="#449FDB" opacity=""></line>
</g>
	<path d="M7.594 25.211c0 0-0.578 3.132-3.843 6.319-0.062 0.064-0.166 0.151-0.134 0.315 0.023 0.116 0.148 0.25 0.332 0.223 1.218-0.183 6.994-2.312 10.284-4.696 1.030 0.15 2.091 0.228 3.175 0.228 9.634 0 17.444-6.173 17.444-13.788s-7.81-13.789-17.444-13.789c-9.634 0-17.444 6.173-17.444 13.788 0 4.738 3.024 8.918 7.629 11.4z" fill="#000000"></path>
	<path d="M6.416 11.811h-1.697c-0.619 0-0.877-0.451-0.877-0.89 0-0.452 0.322-0.89 0.877-0.89h5.328c0.555 0 0.877 0.438 0.877 0.89 0 0.438-0.258 0.89-0.877 0.89h-1.696v6.128c0 0.645-0.413 1.006-0.968 1.006s-0.967-0.361-0.967-1.006v-6.128z" fill="#000000"></path>
	<path d="M11.829 17.175l-0.36 1.087c-0.13 0.4-0.4 0.684-0.929 0.684-0.516 0-0.955-0.387-0.955-0.903 0-0.206 0.065-0.36 0.091-0.426l2.488-6.592c0.219-0.593 0.722-1.071 1.38-1.071 0.684 0 1.162 0.451 1.381 1.071l2.414 6.592c0.078 0.207 0.104 0.388 0.104 0.477 0 0.503-0.413 0.851-0.89 0.851-0.541 0-0.812-0.284-0.941-0.67l-0.351-1.1h-3.43zM13.557 11.967h-0.026l-1.148 3.469h2.322l-1.148-3.469z" fill="#000000"></path>
	<path d="M18.119 10.96c0-0.645 0.413-1.006 0.967-1.006s0.968 0.362 0.968 1.006v6.205h2.272c0.658 0 0.955 0.49 0.93 0.929-0.013 0.424-0.361 0.85-0.93 0.85h-3.202c-0.631 0-1.006-0.413-1.006-1.057v-6.928z" fill="#000000"></path>
	<path d="M29.967 17.145c0.257 0.335 0.49 0.632 0.438 1.032-0.064 0.593-0.593 0.813-1.109 0.761-0.374-0.038-0.581-0.284-0.903-0.722l-2.181-2.973-0.497 0.507v2.267c0 0.503-0.387 0.928-0.968 0.928-0.554 0-0.967-0.361-0.967-0.928v-7.109c0-0.529 0.387-0.954 0.967-0.954 0.555 0 0.968 0.362 0.968 0.954v2.481l2.838-2.957c0.155-0.155 0.4-0.348 0.761-0.348 0.491 0.013 0.942 0.348 0.929 0.903 0 0.335-0.233 0.522-0.658 1.007l-2.006 2.023 2.387 3.128z" fill="#000000"></path>
	<path d="M14.299 8.056c0 0.023-0.013 0.034-0.040 0.034h-0.638c-0.018 0-0.031-0.005-0.040-0.015s-0.016-0.023-0.024-0.037l-0.535-0.969v0.96c0 0.016-0.006 0.030-0.018 0.042s-0.026 0.018-0.042 0.018h-0.495c-0.016 0-0.031-0.006-0.044-0.018s-0.020-0.026-0.020-0.042v-2.139c0-0.016 0.007-0.030 0.020-0.041s0.028-0.017 0.044-0.017h0.495c0.016 0 0.030 0.006 0.042 0.017s0.018 0.025 0.018 0.041v0.963l0.583-0.972c0.008-0.014 0.017-0.026 0.027-0.035s0.023-0.014 0.040-0.014h0.583c0.028 0 0.043 0.011 0.043 0.033 0 0.012-0.004 0.023-0.012 0.033l-0.662 1.045 0.665 1.081c0.006 0.010 0.009 0.020 0.009 0.030z" fill="#000000"></path>
	<path d="M18.469 8.056c0 0.023-0.013 0.034-0.039 0.034h-0.638c-0.018 0-0.032-0.005-0.040-0.015s-0.016-0.023-0.024-0.037l-0.535-0.969v0.96c0 0.016-0.006 0.030-0.018 0.042s-0.026 0.018-0.042 0.018h-0.495c-0.016 0-0.031-0.006-0.044-0.018s-0.020-0.026-0.020-0.042v-2.139c0-0.016 0.007-0.030 0.020-0.041s0.028-0.017 0.044-0.017h0.495c0.016 0 0.030 0.006 0.042 0.017s0.018 0.025 0.018 0.041v0.963l0.583-0.972c0.008-0.014 0.017-0.026 0.027-0.035s0.023-0.014 0.040-0.014h0.583c0.029 0 0.043 0.011 0.043 0.033 0 0.012-0.004 0.023-0.012 0.033l-0.663 1.045 0.665 1.081c0.006 0.010 0.009 0.020 0.009 0.030z" fill="#000000"></path>
	<path d="M22.482 7.118c0 0.186-0.024 0.343-0.074 0.469s-0.117 0.229-0.202 0.308c-0.085 0.079-0.184 0.136-0.298 0.17s-0.233 0.052-0.358 0.052c-0.126 0-0.245-0.017-0.359-0.052s-0.213-0.091-0.298-0.17c-0.085-0.079-0.153-0.182-0.202-0.308s-0.074-0.283-0.074-0.469v-0.313c0-0.184 0.024-0.34 0.074-0.468s0.117-0.231 0.202-0.31c0.085-0.079 0.184-0.136 0.298-0.172s0.233-0.053 0.359-0.053c0.125 0 0.245 0.018 0.358 0.053s0.213 0.093 0.298 0.172c0.085 0.079 0.153 0.182 0.202 0.31s0.074 0.284 0.074 0.468v0.313zM21.857 6.805c0-0.164-0.024-0.281-0.073-0.352s-0.127-0.107-0.234-0.107c-0.107 0-0.185 0.036-0.234 0.107s-0.073 0.188-0.073 0.352v0.313c0 0.164 0.024 0.281 0.073 0.351s0.127 0.104 0.234 0.104c0.107 0 0.185-0.035 0.234-0.104s0.073-0.187 0.073-0.351v-0.313z" fill="#000000"></path>
	<path d="M20.554 8.042c0-0.001-0-0.007-0.002-0.017l-0.376-1.718c-0.058-0.251-0.162-0.503-0.614-0.503s-0.556 0.252-0.614 0.503l-0.376 1.718c-0.002 0.009-0.003 0.016-0.003 0.017-0.002 0.032 0.017 0.047 0.051 0.047h0.526c0.016 0 0.029-0.006 0.040-0.017s0.017-0.025 0.021-0.041l0.072-0.422h0.568l0.071 0.422c0.004 0.017 0.011 0.030 0.021 0.041s0.023 0.017 0.039 0.017h0.526c0.035 0 0.053-0.015 0.051-0.047zM19.353 7.141c0 0 0.131-0.705 0.135-0.72 0.008-0.041 0.026-0.062 0.074-0.062s0.065 0.021 0.074 0.062c0.003 0.015 0.135 0.72 0.135 0.72h-0.416z" fill="#000000"></path>
	<path d="M16.384 8.042c0-0.001-0.001-0.007-0.003-0.017l-0.376-1.718c-0.058-0.251-0.162-0.503-0.614-0.503s-0.556 0.252-0.614 0.503l-0.376 1.718c-0.002 0.009-0.003 0.016-0.003 0.017-0.002 0.032 0.017 0.047 0.051 0.047h0.526c0.016 0 0.029-0.006 0.039-0.017s0.017-0.025 0.021-0.041l0.072-0.422h0.568l0.072 0.422c0.004 0.017 0.011 0.030 0.021 0.041s0.023 0.017 0.040 0.017h0.526c0.034 0 0.053-0.015 0.051-0.047zM15.183 7.141c0 0 0.131-0.705 0.134-0.72 0.009-0.041 0.026-0.062 0.074-0.062s0.065 0.021 0.074 0.062c0.003 0.015 0.135 0.72 0.135 0.72h-0.416z" fill="#000000"></path>
</svg>
