<?xml version="1.0" encoding="utf-8"?>
<!-- Generated by IcoMoon.io -->
<!DOCTYPE svg PUBLIC "-//W3C//DTD SVG 1.1//EN" "http://www.w3.org/Graphics/SVG/1.1/DTD/svg11.dtd">
<svg version="1.1" xmlns="http://www.w3.org/2000/svg" xmlns:xlink="http://www.w3.org/1999/xlink" width="32" height="32" viewBox="0 0 32 32">
<g>
	<line stroke-width="1" x1="" y1="" x2="" y2="" stroke="#449FDB" opacity=""></line>
</g>
	<path d="M22.869 5.033v11.045c0 0 0.117 3.786-2.225 7.649-1.796 2.964-4.017 4.733-4.954 5.397-0.285 0.202-0.646 0.028-0.646 0.028l-3.807-4.114c0 0-0.31-0.393 0.057-0.691 0.75-0.607 2.354-1.98 3.145-3.312 1.267-2.136 1.132-3.493 1.132-3.493s-4.020 0-5.23 0-1.21-1.21-1.21-1.21 0-9.776 0-11.142 1.21-1.366 1.21-1.366 10.109 0 11.319 0 1.209 1.21 1.209 1.21z" fill="#000000"></path>
</svg>
