<?xml version="1.0" encoding="utf-8"?>
<!-- Generator: Adobe Illustrator 15.0.0, SVG Export Plug-In  -->
<!DOCTYPE svg PUBLIC "-//W3C//DTD SVG 1.1//EN" "http://www.w3.org/Graphics/SVG/1.1/DTD/svg11.dtd" [
	<!ENTITY ns_flows "http://ns.adobe.com/Flows/1.0/">
]>
<svg version="1.1"
	 xmlns="http://www.w3.org/2000/svg" xmlns:xlink="http://www.w3.org/1999/xlink" xmlns:a="http://ns.adobe.com/AdobeSVGViewerExtensions/3.0/"
	 x="0px" y="0px" width="283px" height="260px" viewBox="0.285 -0.181 283 260" enable-background="new 0.285 -0.181 283 260"
	 xml:space="preserve">
<defs>
</defs>
<path fill="#333334" d="M61.985,204.657c0,0-4.694,25.451-31.227,51.338c-0.504,0.521-1.345,1.23-1.085,2.559
	c0.188,0.943,1.199,2.033,2.699,1.809c9.896-1.486,56.828-18.787,83.558-38.156c8.366,1.219,16.989,1.855,25.8,1.855
	c78.275,0,141.732-50.158,141.732-112.03C283.463,50.158,220.006,0,141.73,0C63.456,0,0,50.158,0,112.031
	C0,150.53,24.567,184.491,61.985,204.657z"/>
<g>
	<g>
		<path fill="#FFFFFF" d="M52.417,95.785h-13.79c-5.03,0-7.124-3.668-7.124-7.228c0-3.671,2.617-7.232,7.124-7.232H81.92
			c4.506,0,7.126,3.562,7.126,7.232c0,3.56-2.094,7.228-7.126,7.228H68.137v49.793c0,5.24-3.356,8.17-7.863,8.17
			c-4.506,0-7.857-2.93-7.857-8.17V95.785z"/>
		<path fill="#FFFFFF" d="M96.395,139.364l-2.923,8.83c-1.056,3.25-3.254,5.555-7.552,5.555c-4.192,0-7.756-3.141-7.756-7.336
			c0-1.674,0.526-2.928,0.737-3.459l20.214-53.559c1.78-4.822,5.866-8.7,11.21-8.7c5.561,0,9.439,3.668,11.222,8.7l19.613,53.559
			c0.63,1.68,0.841,3.15,0.841,3.879c0,4.09-3.352,6.916-7.234,6.916c-4.398,0-6.6-2.305-7.648-5.447l-2.854-8.938H96.395z
			 M110.432,97.048h-0.208l-9.331,28.188h18.87L110.432,97.048z"/>
		<path fill="#FFFFFF" d="M147.506,88.87c0-5.238,3.352-8.176,7.859-8.176c4.51,0,7.865,2.938,7.865,8.176v50.419h18.463
			c5.346,0,7.758,3.982,7.553,7.549c-0.107,3.449-2.936,6.91-7.553,6.91H155.68c-5.131,0-8.174-3.352-8.174-8.592V88.87z"/>
		<path fill="#FFFFFF" d="M243.768,139.125c2.092,2.723,3.984,5.135,3.561,8.385c-0.52,4.818-4.82,6.602-9.012,6.18
			c-3.041-0.311-4.717-2.307-7.338-5.867l-17.721-24.159l-4.039,4.12v18.423c0,4.086-3.143,7.541-7.861,7.541
			c-4.504,0-7.855-2.93-7.855-7.541V88.449c0-4.295,3.141-7.755,7.855-7.755c4.508,0,7.861,2.938,7.861,7.755v20.162l23.061-24.026
			c1.26-1.257,3.252-2.826,6.186-2.826c3.986,0.106,7.65,2.826,7.547,7.334c0,2.723-1.893,4.239-5.346,8.181l-16.297,16.438
			L243.768,139.125z"/>
	</g>
</g>
<path fill="#FFFFFF" d="M116.463,65.275c0,0.183-0.108,0.273-0.322,0.273h-5.183c-0.148,0-0.256-0.04-0.322-0.124
	c-0.066-0.081-0.132-0.183-0.196-0.297l-4.345-7.874v7.801c0,0.132-0.049,0.246-0.148,0.345c-0.099,0.099-0.213,0.149-0.345,0.149
	h-4.024c-0.131,0-0.251-0.051-0.359-0.149c-0.106-0.099-0.16-0.213-0.16-0.345V47.677c0-0.132,0.053-0.244,0.16-0.335
	c0.108-0.089,0.228-0.135,0.359-0.135h4.024c0.132,0,0.246,0.046,0.345,0.135c0.099,0.091,0.148,0.203,0.148,0.335V55.5l4.739-7.899
	c0.066-0.114,0.14-0.208,0.223-0.282c0.083-0.075,0.188-0.111,0.321-0.111h4.739c0.229,0,0.346,0.089,0.346,0.271
	c0,0.099-0.034,0.19-0.099,0.271l-5.382,8.492l5.405,8.787C116.436,65.113,116.463,65.194,116.463,65.275z"/>
<path fill="#FFFFFF" d="M150.342,65.275c0,0.183-0.107,0.273-0.32,0.273h-5.184c-0.15,0-0.256-0.04-0.322-0.124
	c-0.064-0.081-0.131-0.183-0.195-0.297l-4.345-7.874v7.801c0,0.132-0.049,0.246-0.148,0.345c-0.099,0.099-0.213,0.149-0.345,0.149
	h-4.024c-0.131,0-0.251-0.051-0.359-0.149c-0.106-0.099-0.16-0.213-0.16-0.345V47.677c0-0.132,0.053-0.244,0.16-0.335
	c0.108-0.089,0.228-0.135,0.359-0.135h4.024c0.132,0,0.246,0.046,0.345,0.135c0.099,0.091,0.148,0.203,0.148,0.335V55.5l4.738-7.899
	c0.066-0.114,0.141-0.208,0.223-0.282c0.082-0.075,0.189-0.111,0.322-0.111h4.738c0.232,0,0.346,0.089,0.346,0.271
	c0,0.099-0.033,0.19-0.098,0.271l-5.383,8.492l5.406,8.787C150.316,65.113,150.342,65.194,150.342,65.275z"/>
<path fill="#FFFFFF" d="M182.955,57.649c0,1.514-0.199,2.784-0.604,3.813c-0.402,1.029-0.949,1.864-1.643,2.505
	c-0.689,0.645-1.498,1.104-2.418,1.382c-0.922,0.281-1.895,0.421-2.912,0.421c-1.021,0-1.99-0.14-2.914-0.421
	c-0.922-0.278-1.729-0.737-2.418-1.382c-0.691-0.641-1.24-1.476-1.643-2.505c-0.404-1.028-0.604-2.299-0.604-3.813v-2.543
	c0-1.498,0.199-2.766,0.604-3.803c0.402-1.036,0.951-1.876,1.643-2.517c0.689-0.642,1.496-1.108,2.418-1.395
	c0.924-0.289,1.893-0.434,2.914-0.434c1.018,0,1.99,0.145,2.912,0.434c0.92,0.286,1.729,0.753,2.418,1.395
	c0.693,0.641,1.24,1.48,1.643,2.517c0.404,1.037,0.604,2.305,0.604,3.803V57.649z M177.871,55.106c0-1.333-0.195-2.286-0.592-2.862
	c-0.395-0.577-1.029-0.866-1.9-0.866c-0.873,0-1.506,0.289-1.902,0.866c-0.395,0.576-0.594,1.529-0.594,2.862v2.543
	c0,1.334,0.199,2.284,0.594,2.853c0.396,0.564,1.029,0.849,1.902,0.849c0.871,0,1.506-0.284,1.9-0.849
	c0.396-0.568,0.592-1.519,0.592-2.853V55.106z"/>
<path fill="#FFFFFF" d="M167.283,65.164c0-0.008-0.004-0.059-0.02-0.135l-3.055-13.956c-0.473-2.038-1.314-4.089-4.992-4.089
	c-3.682,0-4.52,2.051-4.992,4.089l-3.055,13.956c-0.018,0.076-0.021,0.127-0.021,0.135c-0.018,0.261,0.135,0.385,0.416,0.385h4.27
	c0.133,0,0.238-0.046,0.322-0.137c0.082-0.091,0.137-0.2,0.172-0.335l0.582-3.427h4.613l0.58,3.427
	c0.033,0.135,0.092,0.244,0.174,0.335s0.189,0.137,0.32,0.137h4.27C167.148,65.549,167.301,65.425,167.283,65.164z M157.525,57.837
	c0,0,1.068-5.727,1.094-5.849c0.068-0.334,0.209-0.504,0.598-0.504c0.385,0,0.527,0.17,0.598,0.504
	c0.025,0.122,1.094,5.849,1.094,5.849H157.525z"/>
<path fill="#FFFFFF" d="M133.401,65.164c0-0.008-0.006-0.059-0.021-0.135l-3.055-13.956c-0.472-2.038-1.313-4.089-4.992-4.089
	c-3.68,0-4.521,2.051-4.992,4.089l-3.055,13.956c-0.016,0.076-0.021,0.127-0.022,0.135c-0.017,0.261,0.137,0.385,0.417,0.385h4.271
	c0.132,0,0.238-0.046,0.32-0.137c0.083-0.091,0.14-0.2,0.174-0.335l0.581-3.427h4.614l0.581,3.427
	c0.034,0.135,0.09,0.244,0.172,0.335c0.084,0.091,0.19,0.137,0.322,0.137h4.271C133.266,65.549,133.418,65.425,133.401,65.164z
	 M123.643,57.837c0,0,1.067-5.727,1.092-5.849c0.07-0.334,0.21-0.504,0.599-0.504c0.386,0,0.528,0.17,0.598,0.504
	c0.025,0.122,1.093,5.849,1.093,5.849H123.643z"/>
</svg>
