<?xml version="1.0" encoding="utf-8"?>
<!-- Generated by IcoMoon.io -->
<!DOCTYPE svg PUBLIC "-//W3C//DTD SVG 1.1//EN" "http://www.w3.org/Graphics/SVG/1.1/DTD/svg11.dtd">
<svg version="1.1" xmlns="http://www.w3.org/2000/svg" xmlns:xlink="http://www.w3.org/1999/xlink" width="32" height="32" viewBox="0 0 32 32">
<g>
	<line stroke-width="1" x1="" y1="" x2="" y2="" stroke="#449FDB" opacity=""></line>
</g>
	<path d="M31.855 13.759c0-7.094-7.114-12.865-15.856-12.865s-15.854 5.772-15.854 12.865c0 6.359 5.641 11.687 13.26 12.695 0.516 0.11 1.219 0.341 1.396 0.782 0.159 0.4 0.104 1.028 0.051 1.433 0 0-0.185 1.119-0.225 1.358-0.068 0.4-0.319 1.567 1.373 0.854 1.693-0.713 9.131-5.376 12.457-9.205h-0.001c2.299-2.518 3.4-5.076 3.4-7.916zM9.793 17.98h-3.15c-0.459 0-0.832-0.373-0.832-0.832v-6.299c0-0.458 0.373-0.831 0.832-0.831 0.458 0 0.831 0.374 0.831 0.831v5.469h2.319c0.46 0 0.831 0.373 0.831 0.831 0 0.46-0.371 0.832-0.831 0.832zM13.052 17.148c0 0.46-0.373 0.832-0.831 0.832s-0.831-0.373-0.831-0.832v-6.299c0-0.458 0.373-0.831 0.831-0.831s0.831 0.374 0.831 0.831v6.299zM20.635 17.148c0 0.36-0.227 0.677-0.568 0.789-0.086 0.029-0.175 0.043-0.265 0.043-0.258 0-0.507-0.124-0.664-0.333l-3.228-4.396v3.896c0 0.46-0.372 0.832-0.831 0.832-0.457 0-0.831-0.373-0.831-0.832v-6.299c0-0.358 0.228-0.675 0.567-0.789 0.086-0.028 0.176-0.043 0.264-0.043 0.259 0 0.508 0.124 0.665 0.333l3.228 4.397v-3.899c0-0.458 0.374-0.831 0.831-0.831 0.459 0 0.832 0.374 0.832 0.831v6.299zM25.732 13.167c0.459 0 0.832 0.373 0.832 0.831s-0.372 0.831-0.832 0.831h-2.318v1.487h2.318c0.459 0 0.832 0.373 0.832 0.831 0 0.46-0.373 0.832-0.832 0.832h-3.15c-0.457 0-0.831-0.373-0.831-0.832v-3.147c0-0.001 0-0.001 0-0.002 0 0 0-0.001 0-0.002v-3.149c0-0.458 0.372-0.831 0.831-0.831h3.15c0.459 0 0.832 0.374 0.832 0.831s-0.372 0.832-0.832 0.832h-2.318v1.487h2.318z" fill="#000000"></path>
</svg>
